<?xml version="1.0" encoding="UTF-8" standalone="no"?>
<svg
   xmlns:dc="http://purl.org/dc/elements/1.1/"
   xmlns:cc="http://creativecommons.org/ns#"
   xmlns:rdf="http://www.w3.org/1999/02/22-rdf-syntax-ns#"
   xmlns:svg="http://www.w3.org/2000/svg"
   xmlns="http://www.w3.org/2000/svg"
   xmlns:sodipodi="http://sodipodi.sourceforge.net/DTD/sodipodi-0.dtd"
   xmlns:inkscape="http://www.inkscape.org/namespaces/inkscape"
   width="32"
   height="32"
   inkscape:hotspot_x="16"
   inkscape:hotspot_y="16"
   style="fill:gray;stroke:black"
   version="1.1"
   id="svg19"
   sodipodi:docname="ico_shvol.svg"
   inkscape:version="0.92.4 (5da689c313, 2019-01-14)">
  <metadata
     id="metadata23">
    <rdf:RDF>
      <cc:Work
         rdf:about="">
        <dc:format>image/svg+xml</dc:format>
        <dc:type
           rdf:resource="http://purl.org/dc/dcmitype/StillImage" />
      </cc:Work>
    </rdf:RDF>
  </metadata>
  <sodipodi:namedview
     pagecolor="#ffffff"
     bordercolor="#666666"
     borderopacity="1"
     objecttolerance="10"
     gridtolerance="10"
     guidetolerance="10"
     inkscape:pageopacity="0"
     inkscape:pageshadow="2"
     inkscape:window-width="1280"
     inkscape:window-height="961"
     id="namedview21"
     showgrid="false"
     inkscape:snap-global="false"
     inkscape:snap-bbox="true"
     inkscape:zoom="14.75"
     inkscape:cx="-0.29152583"
     inkscape:cy="26.34067"
     inkscape:window-x="-8"
     inkscape:window-y="-8"
     inkscape:window-maximized="1"
     inkscape:current-layer="g17" />
  <defs
     id="defs11">
    <marker
       inkscape:stockid="Arrow1Lstart"
       orient="auto"
       refY="0.0"
       refX="0.0"
       id="Arrow1Lstart"
       style="overflow:visible"
       inkscape:isstock="true">
      <path
         id="path835"
         d="M 0.0,0.0 L 5.0,-5.0 L -12.5,0.0 L 5.0,5.0 L 0.0,0.0 z "
         style="fill-rule:evenodd;stroke:#000000;stroke-width:1.0pt"
         transform="scale(0.8) translate(12.5,0)" />
    </marker>
    <marker
       inkscape:stockid="DotL"
       orient="auto"
       refY="0.0"
       refX="0.0"
       id="DotL"
       style="overflow:visible"
       inkscape:isstock="true">
      <path
         id="path896"
         d="M -2.5,-1.0 C -2.5,1.7600000 -4.7400000,4.0 -7.5,4.0 C -10.260000,4.0 -12.5,1.7600000 -12.5,-1.0 C -12.5,-3.7600000 -10.260000,-6.0 -7.5,-6.0 C -4.7400000,-6.0 -2.5,-3.7600000 -2.5,-1.0 z "
         style="fill-rule:evenodd;stroke:#000000;stroke-width:1.0pt"
         transform="scale(0.8) translate(7.4, 1)" />
    </marker>
    <g
       id="objects">
      <!-- Slash -->
      <path
         d="m 3.5,28.5 16,-16"
         id="path2" />
      <!-- Plus -->
      <path
         d="m 4,15.5 h 5 m -2.5,-2.5 v 5"
         id="path4" />
      <!-- Minus -->
      <path
         d="m 14,25.5 h 5"
         id="path6" />
      <!-- Letter -->
      <path
         d="m 25,7.5 h 2 m -3.5,3 2.5,-8 2.5,8"
         id="path8" />
    </g>
  </defs>
  <g
     style="stroke-linecap:square;stroke-linejoin:bevel"
     id="g17">
    <path
       style="fill:none;stroke:#ffd740;stroke-width:1px;stroke-linecap:butt;stroke-linejoin:miter;stroke-opacity:1"
       d="m 15.661017,10.338983 c 0,8.067797 0,8.067797 0,8.067797"
       id="path844-8"
       inkscape:connector-curvature="0" />
    <path
       style="fill:none;stroke:#ffd740;stroke-width:1px;stroke-linecap:butt;stroke-linejoin:miter;stroke-opacity:1"
       d="M 19.627118,14.271186 H 11.559322"
       id="path844-7-26"
       inkscape:connector-curvature="0"
       sodipodi:nodetypes="cc" />
    <path
       style="fill:none;stroke:#ffd740;stroke-width:1.37259054px;stroke-linecap:butt;stroke-linejoin:miter;stroke-opacity:1"
       d="M 5.1936502,9.7695441 C 5.1324656,9.6122856 5.0712823,9.4550271 5.0100974,9.2977672 4.9489128,9.2663138 4.8571365,9.2663138 4.8265446,9.2034071 c -0.037332,-0.076754 0.037719,-0.5829285 0,-0.6604889 -0.013682,-0.028127 -0.070145,0.02224 -0.091777,0 -0.021631,-0.02224 0,-0.062907 0,-0.09436 0,-0.031453 0,-0.062907 0,-0.09436 0,-0.4403249 0,-0.8806502 0,-1.3209756 0,-0.1887106 0,-0.3774214 0,-0.5661322 0,-0.062904 -0.027362,-0.1324479 0,-0.1887108 0.00758,-0.015583 0.2509118,0 0.2753292,0 0.2447372,0 0.4894744,0 0.7342117,0 0.041333,0 0.2473985,0.014357 0.2753293,0 0.3819516,-0.1963424 -0.098113,0.00651 0.091777,-0.1887109 0.077994,-0.080188 0.1870881,-0.1206696 0.2753293,-0.1887108 0.029858,-0.023021 0.2671763,-0.2579198 0.2753294,-0.2830661 1.387e-4,-4.278e-4 -8.76e-5,-0.2829762 0,-0.2830663 C 6.7702334,5.2236268 6.9210197,5.1629587 7.0291793,5.0517598 7.0775502,5.0020304 7.0830105,4.9215664 7.120956,4.8630491 7.2058027,4.7322009 7.2983619,4.6064365 7.3962848,4.4856268 7.4516811,4.4172866 7.525784,4.366381 7.5798381,4.2969158 7.6487473,4.2083645 7.6853908,4.0940364 7.7633914,4.0138497 8.1019313,3.6657969 7.8004261,4.2398058 8.130498,3.7307835 c 0.01696,-0.02617 -0.021626,-0.072117 0,-0.094357 0.0535,-0.055003 0.3415044,0.1097473 0.3671056,0.188711 0.019339,0.059675 -0.019339,0.1290353 0,0.1887106 0.013674,0.042198 0.061175,0.062904 0.091775,0.094357 0.0306,0.031452 0.061177,0.062904 0.091775,0.094357 0.2104276,0.2163415 -0.058051,-0.039783 0.2753277,0.1887109 0.1080003,0.074018 0.1714986,0.203003 0.2753299,0.2830661 0.046227,0.2078804 0.1888011,0.049875 0.27533,0.094357 0.038689,0.019892 0.050743,0.080289 0.091775,0.094357 4.182e-4,1.426e-4 0.2752426,-8.99e-5 0.2753299,0 0.048375,0.049729 0.0306,0.1572592 0.091775,0.1887108 0.011261,0.00577 0.4885669,0 0.5506579,0 0.428291,0 0.856583,0 1.284872,0 0.09177,0 0.183552,0 0.275328,0 0.0306,0 0.07015,0.02224 0.09177,0 0.04838,-0.049729 0.03487,-0.1496995 0.09177,-0.1887108 0.05092,-0.034892 0.125517,0.019892 0.183552,0 0.04104,-0.014066 0.05309,-0.074463 0.09177,-0.094357 0.02736,-0.014067 0.06118,0 0.09177,0 0.0612,0 0.124198,0.015256 0.183554,0 0.06636,-0.017058 0.117187,-0.077299 0.183553,-0.094357 0.07463,-0.019182 0.454582,0 0.550657,0 0.0306,0 0.06119,0 0.09177,0 0.0306,0 0.0644,0.014067 0.09177,0 0.0387,-0.019892 0.07242,-0.054572 0.09177,-0.094357 0.0137,-0.028131 -0.02736,-0.08029 0,-0.094357 0.08209,-0.042198 0.183555,0 0.275331,0 0.183552,0 0.367107,0 0.550659,0 0.09177,0 0.184802,0.015513 0.275329,0 1.126795,-0.1930764 -0.48123,0.03911 0.458882,-0.2830663 0.116099,-0.039783 0.247114,0.024673 0.367106,0 0.189724,-0.03901 0.361784,-0.1455593 0.550659,-0.1887108 0.0236,-0.00538 0.401359,0.019712 0.458881,0 0.0649,-0.02224 0.11866,-0.072116 0.183554,-0.094357 0.05805,-0.019893 0.128825,0.028131 0.183552,0 0.202922,-0.104313 0.02849,-0.058561 0.09177,-0.1887108 0.01934,-0.039784 0.07242,-0.054572 0.09177,-0.094356 0.0137,-0.028131 -0.02162,-0.072117 0,-0.094357 0.02162,-0.02224 0.07015,0.02224 0.09177,0 0.02162,-0.02224 -0.02162,-0.072117 0,-0.094357 0.04838,-0.049729 0.126633,-0.055344 0.183552,-0.094357 0.210014,-0.1439424 -0.05739,-0.074689 0.27533,-0.1887107 0.02902,-0.00995 0.0612,0 0.09177,0 0.09177,0 0.190115,0.035042 0.275329,0 0.08034,-0.033039 0.106151,-0.1489271 0.183551,-0.1887109 0.05474,-0.028131 0.122374,0 0.183554,0 0.183552,0 0.367106,0 0.550659,0 0.183553,0 0.367105,0 0.550658,0 0.0612,0 0.126743,-0.023362 0.183555,0 0.102404,0.042116 0.172916,0.1465948 0.275328,0.1887109 0.242331,0.099656 0.139595,-0.1395498 0.367107,0.094357 0.02162,0.02224 -0.02162,0.072117 0,0.094357 0.02162,0.02224 0.06441,-0.014066 0.09177,0 0.03867,0.019892 0.05309,0.074463 0.09177,0.094357 0.02736,0.014067 0.0781,-0.028131 0.09177,0 0.02736,0.056263 -0.02736,0.1324479 0,0.1887108 0.02736,0.056262 0.128824,-0.028131 0.183552,0 0.202922,0.104313 0.02849,0.058561 0.09177,0.1887109 0.01934,0.039784 0.07242,0.054572 0.09177,0.094357 0.01462,0.030068 0,0.3874494 0,0.4717771 0,0.3774214 0,0.7548431 0,1.1322648 0,0.077136 -0.0155,0.6126655 0,0.6604879 0.01367,0.042197 0.06778,0.057346 0.09177,0.094357 0.03795,0.058517 0.03487,0.1496995 0.09177,0.1887108 0.05092,0.034893 0.140289,-0.04448 0.183554,0 0.04327,0.04448 -0.01934,0.1290353 0,0.1887109 0.0137,0.042198 0.05799,0.066571 0.09177,0.094356 0.119434,0.098239 0.258947,0.1718675 0.367107,0.2830662 0.0059,0.00605 0.172155,0.359846 0.183552,0.3774218 0.02399,0.03701 0.06117,0.062904 0.09177,0.094356 0.09177,0.094356 0.183554,0.1887104 0.27533,0.2830664 0.04832,0.049671 0.226311,0.257869 0.275328,0.2830651 0.05474,0.028127 0.125504,-0.019888 0.183553,0 0.0649,0.02224 0.116466,0.080568 0.183554,0.09436 0.09,0.018509 0.193242,-0.042198 0.275328,0 0.0612,0.031453 0.0434,0.1389795 0.09177,0.1887105 0.02162,0.02224 0.0612,0 0.09177,0 0.09177,0 0.185334,-0.01851 0.275328,0 0.06707,0.013779 0.117189,0.077297 0.183553,0.09436 0.05936,0.015254 0.126745,-0.023367 0.183554,0 0.102404,0.042115 0.172916,0.146595 0.275329,0.1887104 0.05681,0.023367 0.123204,-0.010296 0.183554,0 0.124415,0.021321 0.242688,0.073038 0.367104,0.09436 0.06036,0.010296 0.126743,-0.023367 0.183554,0 0.102405,0.042114 0.176671,0.1379912 0.275329,0.1887103 0.02736,0.01407 0.0621,-0.00765 0.09177,0 0.09384,0.024119 0.180467,0.074848 0.275331,0.09436 0.03555,0.00737 0.352008,-0.00779 0.367104,0 0.02736,0.014069 -0.02162,0.072121 0,0.09436 0.04327,0.04448 0.128825,-0.028128 0.183554,0 0.202922,0.1043119 0.02849,0.058564 0.09177,0.1887103 0.04932,0.1014302 0.126797,0.1858254 0.183553,0.2830666 0.03519,0.060303 0.0612,0.1258135 0.09177,0.1887104 0.0306,0.062907 0.07518,0.1204832 0.09177,0.1887118 0.01484,0.061029 -0.01934,0.1290285 0,0.1887105 0.01368,0.0422 0.07242,0.05457 0.09177,0.09436 0.0137,0.02813 -0.0137,0.06622 0,0.09436 0.01934,0.03979 0.07242,0.05457 0.09177,0.09436 0.02736,0.05627 -0.04328,0.14423 0,0.18871 0.189886,0.195224 -0.0075,-0.298329 0.183552,0.09436 0.0137,0.02813 -0.0137,0.06622 0,0.09436 0.01934,0.03979 0.0781,0.05216 0.09177,0.09436 0.01934,0.05968 0,0.125813 0,0.18871 0,0.03145 -0.01367,0.06622 0,0.09436 0.01934,0.03979 0.07242,0.05457 0.09177,0.09436 0.0137,0.02813 0,0.0629 0,0.09436 0.0612,0.0629 0.135563,0.114691 0.183552,0.188709 0.01697,0.02617 0,0.0629 0,0.09437 0,0.0629 -0.01934,0.129029 0,0.188711 0.0137,0.04219 0.07243,0.05457 0.09177,0.09436 0.0137,0.02813 -0.0137,0.06621 0,0.09436 0.03871,0.07957 0.15619,0.104304 0.183552,0.18871 0.01934,0.05968 -0.03393,0.136377 0,0.188711 0.03795,0.05852 0.135181,0.04462 0.183555,0.09436 0.02162,0.02224 -0.0097,0.06452 0,0.09436 0.02162,0.06672 0.0434,0.13898 0.09177,0.18871 0.04838,0.04972 0.135181,0.04461 0.183552,0.09436 0.04838,0.04972 0.05385,0.130197 0.09177,0.18871 0.024,0.03701 0.07242,0.05456 0.09177,0.09436 0.03671,0.07549 -0.03671,0.207584 0,0.283068 0.01934,0.03979 0.07242,0.05457 0.09177,0.09436 0.01368,0.02813 -0.02162,0.07213 0,0.09436 0.04838,0.04972 0.135182,0.04463 0.183553,0.09436 0.0459,0.04718 -0.0459,0.235887 0,0.283066 0.02162,0.02224 0.0781,-0.02813 0.09177,0 0.01722,0.03538 0,0.509956 0,0.566131 0,0.408874 0,0.817747 0,1.22662 0,0.220163 0,0.440327 0,0.660489 0,0.02242 0.01034,0.356275 0,0.377421 -0.190976,0.392685 0.0065,-0.100876 -0.183551,0.09436 -0.02162,0.02224 0,0.0629 0,0.09436 0,0.0629 0,0.125814 0,0.188712 0,0.195272 0.02332,0.388643 -0.09177,0.566133 -0.01696,0.02617 -0.07015,-0.02224 -0.09177,0 -0.02162,0.02224 0.0097,0.06452 0,0.09436 -0.02162,0.06672 -0.04342,0.138978 -0.09177,0.188709 -0.04838,0.04972 -0.135181,0.04461 -0.183553,0.09436 -0.04838,0.04972 -0.05383,0.130199 -0.09177,0.18871 -0.02399,0.03701 -0.07242,0.05456 -0.09177,0.09436 -0.02736,0.05627 0.05092,0.153817 0,0.18871 -0.09177,0.03146 -0.183555,0.0629 -0.275331,0.09436 0,0.03146 0.02162,0.07213 0,0.09436 -0.04838,0.04972 -0.135181,0.04461 -0.183554,0.09436 -0.09672,0.09945 -0.08681,0.277963 -0.183553,0.377421 -0.04328,0.04448 -0.140287,-0.04447 -0.183552,0 -0.358177,0.368243 0.02124,0.05067 -0.09177,0.283066 -0.07029,0.144513 -0.163545,0.07379 -0.275327,0.188711 -0.162968,0.167548 -0.0522,0.214686 -0.09177,0.377422 -0.02347,0.09648 -0.06832,0.186576 -0.09177,0.283066 -0.02046,0.08413 0.02695,0.416316 0,0.471776 -0.01934,0.03979 -0.0781,0.05216 -0.09177,0.09436 -0.01741,0.05369 0,0.38291 0,0.471777 0,0.251616 0,0.503229 0,0.754843 0,0.09436 -0.02902,0.193553 0,0.283066 0.01367,0.0422 0.07242,0.05456 0.09177,0.09436 0.0137,0.02813 0,0.0629 0,0.09436 0,0.03146 0,0.0629 0,0.09436 0,0.188712 0,0.377422 0,0.566133 0,0.0629 -0.02736,0.132452 0,0.188709 0.0137,0.02813 0.07015,-0.02224 0.09177,0 0.003,0.0031 0,0.260185 0,0.283067 0,0.345969 0,0.69194 0,1.03791 0,0.03146 0,0.0629 0,0.09436 0,0.03146 0.02162,0.07213 0,0.09436 -0.02162,0.02224 -0.06441,-0.01407 -0.09177,0 -0.0387,0.01989 -0.05577,0.06969 -0.09177,0.09436 -0.05693,0.03902 -0.126634,0.05534 -0.183552,0.09436 -0.154821,0.106122 -0.14513,0.226014 -0.367107,0.283067 -0.05936,0.01525 -0.13265,-0.03488 -0.183553,0 -0.05693,0.03902 -0.0434,0.13898 -0.09177,0.188712 -0.04327,0.04447 -0.128826,-0.02813 -0.183553,0 -0.0387,0.01989 -0.05309,0.07446 -0.09177,0.09436 -0.02736,0.01407 -0.0644,-0.01407 -0.09177,0 -0.420026,0.215913 0.389446,-0.03911 -0.27533,0.188711 -0.16953,0.05809 -0.04351,-0.143979 -0.275328,0.09436 -0.02162,0.02224 0.02736,0.08028 0,0.09436 -0.05474,0.02813 -0.125506,-0.01989 -0.183553,0 -0.04104,0.01407 -0.05309,0.07446 -0.09177,0.09436 -0.08209,0.0422 -0.19324,-0.04219 -0.275328,0 -0.02736,0.01407 0.02162,0.07213 0,0.09436 -0.02162,0.02224 -0.0644,-0.01407 -0.09177,0 -0.03871,0.01989 -0.05309,0.07446 -0.09177,0.09436 -0.02736,0.01407 -0.0612,0 -0.09177,0 -0.09177,0.03146 -0.194837,0.03919 -0.275329,0.09436 -0.02545,0.01745 0.02162,0.07213 0,0.09436 -8.7e-5,9e-5 -0.274914,-1.43e-4 -0.27533,0 -0.04105,0.01408 -0.05309,0.07446 -0.09177,0.09436 -0.06281,0.03228 -0.411958,-0.03215 -0.458883,0 -0.07199,0.04935 -0.11155,0.139366 -0.183553,0.188711 -0.02539,0.01742 -0.512414,0 -0.550657,0 -0.489473,0 -0.978949,0 -1.468423,0 -0.367107,0 -0.734212,0 -1.101318,0 -0.07655,0 -0.439317,0.01336 -0.458882,0 -0.07199,-0.04934 -0.114332,-0.135332 -0.183553,-0.188711 -0.05474,-0.04219 -0.135181,-0.04461 -0.183553,-0.09436 -0.04838,-0.04972 -0.0434,-0.13898 -0.09177,-0.188711 -0.02162,-0.02224 -0.07015,0.02224 -0.09177,0 -0.02162,-0.02224 0.02162,-0.07213 0,-0.09436 -0.02162,-0.02224 -0.07015,0.02224 -0.09177,0 -0.02162,-0.02224 0.02162,-0.07213 0,-0.09436 -0.02162,-0.02224 -0.07015,0.02224 -0.09177,0 -0.189888,-0.195225 0.290175,0.0077 -0.09177,-0.188711 -0.05473,-0.02813 -0.140288,0.04447 -0.183552,0 -0.02162,-0.02224 0.02162,-0.07213 0,-0.09436 -0.02162,-0.02224 -0.0781,0.02813 -0.09177,0 -0.02736,-0.05628 0.01484,-0.127679 0,-0.188713 -0.01659,-0.06822 -0.07015,-0.121985 -0.09177,-0.18871 -0.0097,-0.02983 0.01697,-0.06817 0,-0.09436 -0.0612,-0.0629 -0.122374,-0.125814 -0.183553,-0.18871 0,-0.03146 0.0137,-0.06621 0,-0.09436 -0.01934,-0.03978 -0.07242,-0.05456 -0.09177,-0.09436 -0.01642,-0.03375 0.02835,-0.26849 0,-0.283065 -0.05472,-0.02813 -0.132651,0.03488 -0.183554,0 -0.05693,-0.03902 -0.05385,-0.130198 -0.09177,-0.188709 -0.02399,-0.03701 -0.0612,-0.0629 -0.09177,-0.09436 -0.0306,-0.03146 -0.05578,-0.06969 -0.09177,-0.09436 -0.05693,-0.03902 -0.135181,-0.04463 -0.183554,-0.09436 -0.189889,-0.195227 0.290176,0.0077 -0.09177,-0.188712 -0.05474,-0.02813 -0.128825,0.02813 -0.183553,0 -0.0387,-0.01989 -0.05309,-0.07446 -0.09177,-0.09436 -0.02736,-0.01407 -0.0644,0.01408 -0.09177,0 -0.03868,-0.01989 -0.05309,-0.07446 -0.09177,-0.09436 -0.02736,-0.01407 -0.0644,0.01407 -0.09177,0 -0.03869,-0.01989 -0.05307,-0.07446 -0.09177,-0.09436 -0.02926,-0.01504 -0.376858,0 -0.458882,0 -0.05567,0 -0.619225,-0.01591 -0.642435,0 -0.05693,0.03902 -0.04341,0.138978 -0.09177,0.18871 -0.04838,0.04972 -0.135181,0.04462 -0.183554,0.09436 -0.04838,0.04972 -0.0434,0.138981 -0.09177,0.188712 -0.04838,0.04972 -0.135181,0.04461 -0.183553,0.09436 -0.04328,0.04447 0.01934,0.129028 0,0.188711 -0.02162,0.06672 -0.07518,0.120483 -0.09177,0.188711 -0.01484,0.06103 0.02736,0.132452 0,0.188711 -0.01367,0.02813 -0.06441,-0.01407 -0.09177,0 -0.0387,0.01989 -0.06117,0.0629 -0.09177,0.09436 -0.0306,0.03146 -0.06778,0.05733 -0.09177,0.09436 -0.16891,-0.02094 -0.06339,0.224716 -0.09177,0.283066 -0.01934,0.03979 -0.07242,0.05456 -0.09177,0.09436 -0.0137,0.02813 0.01367,0.06621 0,0.09436 -0.190978,0.392686 0.0065,-0.100875 -0.183553,0.09436 -0.02162,0.02224 0.01367,0.06621 0,0.09436 -0.01898,0.03904 -0.23643,0.256403 -0.275329,0.283066 -0.05693,0.03902 -0.135181,0.04461 -0.183553,0.09436 -0.04838,0.04972 -0.04339,0.138979 -0.09177,0.188709 -0.04838,0.04972 -0.135182,0.04463 -0.183552,0.09436 -0.02162,0.02224 0.02162,0.07213 0,0.09436 -0.02162,0.02224 -0.07015,-0.02224 -0.09177,0 -0.02162,0.02224 0.02162,0.07213 0,0.09436 -0.04838,0.04972 -0.126634,0.05535 -0.183552,0.09436 -0.036,0.02468 -0.05309,0.07446 -0.09177,0.09436 -0.05472,0.02813 -0.125519,-0.01989 -0.183554,0 -0.664775,0.227817 0.144695,-0.02721 -0.275329,0.188711 -0.02057,0.0107 -0.345297,0 -0.367105,0 -0.305923,0 -0.611844,0 -0.917765,0 -0.183554,0 -0.367107,0 -0.550659,0 -0.09177,0 -0.186293,0.02288 -0.27533,0 -0.04196,-0.01093 -0.05578,-0.06968 -0.09177,-0.09436 -0.05693,-0.03902 -0.117187,-0.0773 -0.183554,-0.09436 -0.05936,-0.01525 -0.13265,0.03488 -0.1835523,0 C 9.8185677,26.827848 9.7958617,26.731412 9.6907565,26.65937 9.6338315,26.62035 9.5641219,26.60403 9.5072032,26.56501 9.3368077,26.448215 9.4941382,26.49308 9.323651,26.376299 c -0.056902,-0.03902 -0.1351813,-0.04461 -0.1835533,-0.09436 -0.1898881,-0.195224 0.2901747,0.0077 -0.091775,-0.188711 -0.1265933,-0.06508 -0.082089,0.114277 -0.1835545,-0.09436 -0.013697,-0.02813 0.021626,-0.07213 0,-0.09436 -0.1223739,-0.125816 -0.088075,0.200157 -0.1835522,-0.09436 -0.013996,-0.04315 0.020419,-0.335435 0,-0.377422 -0.019339,-0.03979 -0.078102,-0.05216 -0.091775,-0.09436 -0.016868,-0.05201 0,-0.48606 0,-0.566134 0,-0.408873 0,-0.817746 0,-1.22662 0,-0.345968 0,-0.69194 0,-1.037909 0,-0.03146 0.021626,-0.07213 0,-0.09436 -0.048375,-0.04972 -0.145609,-0.03583 -0.1835544,-0.09436 -0.1835523,-0.283064 0.091775,-0.09436 0,-0.283064 -0.019339,-0.03979 -0.072425,-0.05456 -0.091775,-0.09436 -0.013697,-0.02813 0.021626,-0.07213 0,-0.09436 -0.021626,-0.02224 -0.07015,0.02224 -0.091775,0 -0.021626,-0.02224 0,-0.0629 0,-0.09436 -0.0306,0 -0.07015,0.02224 -0.091775,0 -0.048375,-0.04972 -0.07015,-0.121988 -0.091775,-0.188712 -0.00966,-0.02983 0.021626,-0.07213 0,-0.09436 -0.021626,-0.02224 -0.062762,0.01001 -0.091775,0 -0.064899,-0.02224 -0.1351825,-0.04461 -0.1835533,-0.09436 -0.021637,-0.02224 0.021625,-0.07212 0,-0.09436 -0.048375,-0.04972 -0.1266369,-0.05534 -0.1835533,-0.09436 -0.036,-0.02467 -0.050731,-0.08028 -0.091775,-0.09436 -0.058039,-0.01989 -0.124195,0.01525 -0.1835533,0 -0.06637,-0.01706 -0.1186566,-0.07213 -0.1835521,-0.09436 -0.029025,-0.01001 -0.070144,0.02224 -0.091778,0 -0.048371,-0.04972 -0.043406,-0.138979 -0.091776,-0.18871 -0.021634,-0.02224 -0.064414,0.01408 -0.091776,0 -0.038697,-0.01989 -0.05308,-0.07446 -0.091777,-0.09436 -0.048444,-0.02489 -0.2353642,0.02738 -0.2753295,0 -0.071996,-0.04935 -0.1115577,-0.139366 -0.1835529,-0.18871 -0.050908,-0.03488 -0.1255085,0.01989 -0.1835528,0 -0.1297917,-0.04447 -0.2343785,-0.154598 -0.3671058,-0.188712 -0.059357,-0.01525 -0.1326431,0.03488 -0.1835529,0 -0.056918,-0.03902 -0.043406,-0.138978 -0.091777,-0.188711 -0.043265,-0.04449 -0.1402891,0.04447 -0.183553,0 -0.021633,-0.02224 0.021631,-0.07213 0,-0.09436 -0.021633,-0.02224 -0.070145,0.02224 -0.091777,0 -0.021631,-0.02224 0.021631,-0.07213 0,-0.09436 -0.3581791,-0.368245 -0.049289,0.02183 -0.2753292,-0.09436 -0.038697,-0.01989 -0.061184,-0.0629 -0.091777,-0.09436 -0.030593,-0.03146 -0.072427,-0.05457 -0.091776,-0.09436 -0.013682,-0.02813 0.021634,-0.07212 0,-0.09436 -0.021631,-0.02224 -0.067303,0.01888 -0.091777,0 -0.1038338,-0.08005 -0.1835529,-0.188711 -0.2753293,-0.283066 -0.030593,-0.03146 -0.065818,-0.05877 -0.091777,-0.09436 -0.066181,-0.09071 -0.1173719,-0.192345 -0.1835527,-0.283064 -0.025958,-0.03558 -0.078096,-0.05216 -0.091777,-0.09436 -0.074975,-0.231244 0.074975,-0.146178 0,-0.377423 -0.013682,-0.04219 -0.072427,-0.05456 -0.091777,-0.09436 -0.013682,-0.02813 0.013682,-0.06621 0,-0.09436 -0.2088964,-0.214764 -0.024255,0.01953 -0.091777,-0.188711 -0.2215916,-0.683454 0.02646,0.148763 -0.183553,-0.283065 -0.013682,-0.02813 0.00742,-0.06384 0,-0.09436 -0.023464,-0.09648 -0.068314,-0.186577 -0.091777,-0.283065 -0.00742,-0.03051 0.016969,-0.06817 0,-0.09436 -0.047996,-0.07401 -0.1355557,-0.114692 -0.1835528,-0.188711 -0.025183,-0.03885 0.026482,-0.417322 0,-0.471778 -0.019349,-0.03979 -0.072427,-0.05456 -0.091777,-0.09436 -0.013682,-0.02813 0.00968,-0.06452 0,-0.09436 -0.021631,-0.06672 -0.070145,-0.121986 -0.091777,-0.188712 -0.018053,-0.05568 0,-0.419057 0,-0.471776 0,-0.251615 0,-0.503229 0,-0.754844 0,-0.188711 0,-0.37742 0,-0.566131 0,-0.09437 -0.022258,-0.191528 0,-0.283068 0.066543,-0.273651 0.071601,-0.110412 0.1835528,-0.283066 0.037945,-0.05851 0.043406,-0.138978 0.091777,-0.188711 0.021631,-0.02224 0.070145,0.02224 0.091777,0 0.021631,-0.02224 -0.013682,-0.06621 0,-0.09436 0.019349,-0.03978 0.078096,-0.05216 0.091777,-0.09436 0.019349,-0.05967 -0.027361,-0.132454 0,-0.18871 0.013682,-0.02813 0.070145,0.02224 0.091777,0 0.3581793,-0.368246 -0.021244,-0.05067 0.091776,-0.283067 0.019349,-0.03979 0.072427,-0.05457 0.091777,-0.09436 0.013682,-0.02813 -0.013682,-0.06621 0,-0.09436 0.019349,-0.03978 0.05308,-0.07446 0.091777,-0.09436 0.027361,-0.01407 0.078096,0.02813 0.091777,0 0.027362,-0.05628 -0.019349,-0.129043 0,-0.18871 0.013682,-0.0422 0.072427,-0.05456 0.091776,-0.09436 0.013682,-0.02813 -0.013682,-0.06621 0,-0.09436 0.019349,-0.03978 0.072427,-0.05457 0.091777,-0.09436 0.013682,-0.02813 -0.00968,-0.06451 0,-0.09437 0.021634,-0.06672 0.070145,-0.121986 0.091776,-0.188709 0.045888,-0.141534 -0.091776,-0.09436 0,-0.283067 0.013682,-0.02813 0.064414,0.01407 0.091776,0 0.038697,-0.01989 0.061184,-0.0629 0.091777,-0.09436 0.030593,-0.03146 0.072427,-0.05456 0.091776,-0.09436 0.013682,-0.02813 -0.013682,-0.06621 0,-0.09436 0.019349,-0.03978 0.072427,-0.05457 0.091777,-0.09436 0.043264,-0.08896 0.048512,-0.194109 0.091776,-0.283067 0.019349,-0.03979 0.072427,-0.05457 0.091777,-0.09436 0.013682,-0.02813 -0.013682,-0.06622 0,-0.09436 0.019349,-0.03979 0.072427,-0.05457 0.091776,-0.09436 0.013682,-0.02813 -0.00968,-0.06452 0,-0.09436 0.021631,-0.06672 0.070145,-0.121986 0.091777,-0.18871 0.026709,-0.08238 -0.013948,-0.197022 0,-0.283067 0.025702,-0.158173 0.061242,-0.3144984 0.091834,-0.4717584 z"
       id="path850"
       inkscape:connector-curvature="0" />
  </g>
</svg>
