<?xml version="1.0" encoding="UTF-8" standalone="no"?>
<svg
   xmlns:dc="http://purl.org/dc/elements/1.1/"
   xmlns:cc="http://creativecommons.org/ns#"
   xmlns:rdf="http://www.w3.org/1999/02/22-rdf-syntax-ns#"
   xmlns:svg="http://www.w3.org/2000/svg"
   xmlns="http://www.w3.org/2000/svg"
   xmlns:sodipodi="http://sodipodi.sourceforge.net/DTD/sodipodi-0.dtd"
   xmlns:inkscape="http://www.inkscape.org/namespaces/inkscape"
   width="32"
   height="32"
   inkscape:hotspot_x="16"
   inkscape:hotspot_y="16"
   style="fill:gray;stroke:black"
   version="1.1"
   id="svg19"
   sodipodi:docname="ico_load_img.svg"
   inkscape:version="0.92.4 (5da689c313, 2019-01-14)">
  <metadata
     id="metadata23">
    <rdf:RDF>
      <cc:Work
         rdf:about="">
        <dc:format>image/svg+xml</dc:format>
        <dc:type
           rdf:resource="http://purl.org/dc/dcmitype/StillImage" />
      </cc:Work>
    </rdf:RDF>
  </metadata>
  <sodipodi:namedview
     pagecolor="#ffffff"
     bordercolor="#666666"
     borderopacity="1"
     objecttolerance="10"
     gridtolerance="10"
     guidetolerance="10"
     inkscape:pageopacity="0"
     inkscape:pageshadow="2"
     inkscape:window-width="1280"
     inkscape:window-height="961"
     id="namedview21"
     showgrid="false"
     inkscape:snap-global="false"
     inkscape:snap-bbox="true"
     inkscape:zoom="10.429825"
     inkscape:cx="13.74102"
     inkscape:cy="9.8072498"
     inkscape:window-x="-8"
     inkscape:window-y="-8"
     inkscape:window-maximized="1"
     inkscape:current-layer="g17" />
  <defs
     id="defs11">
    <g
       id="objects">
      <!-- Slash -->
      <path
         d="m 3.5,28.5 16,-16"
         id="path2" />
      <!-- Plus -->
      <path
         d="m 4,15.5 h 5 m -2.5,-2.5 v 5"
         id="path4" />
      <!-- Minus -->
      <path
         d="m 14,25.5 h 5"
         id="path6" />
      <!-- Letter -->
      <path
         d="m 25,7.5 h 2 m -3.5,3 2.5,-8 2.5,8"
         id="path8" />
    </g>
  </defs>
  <g
     style="stroke-linecap:square;stroke-linejoin:bevel"
     id="g17">
    <rect
       style="opacity:1;fill:none;fill-opacity:1;stroke:#ffd740;stroke-width:1.27266526;stroke-linecap:square;stroke-linejoin:miter;stroke-miterlimit:4;stroke-dasharray:none;stroke-dashoffset:0;stroke-opacity:1"
       id="rect821"
       width="27.523945"
       height="27.523945"
       x="2.4414172"
       y="2.5092137" />
    <path
       style="fill:none;stroke:#ffd740;stroke-width:1.27266526px;stroke-linecap:butt;stroke-linejoin:miter;stroke-opacity:1"
       d="m 10.837086,13.604804 c -0.230809,0 -0.461617,0 -0.692426,0 -0.11541,0 -0.2323787,-0.01885 -0.3462135,0 -0.1272702,0.02107 -0.2238075,0.131479 -0.3462125,0.172025 -0.027371,0.009 -0.057705,0 -0.086558,0 -0.1873717,0 -0.1776754,-0.02564 -0.3462125,0.08601 -0.033947,0.0225 -0.073651,0.04755 -0.086558,0.08601 -0.039806,0.11866 0.068059,0.470121 0.086558,0.516074 0.015154,0.03765 0.062072,0.05358 0.086557,0.08601 0.062416,0.08269 0.08989,0.196013 0.1731063,0.258037 0.046164,0.03441 0.1214998,-0.02564 0.1731075,0 0.072987,0.03627 0.1001154,0.135759 0.1731063,0.172024 0.077417,0.03847 0.1822447,-0.03847 0.2596601,0 0.036487,0.01813 0.050058,0.06787 0.086558,0.08601 0.1193943,0.05932 0.077417,-0.104175 0.1731083,0.08601 0.01318,0.02618 0,0.2193 0,0.258037 0,0.08075 0.01653,0.380777 0,0.430062 -0.01291,0.03846 -0.0683,0.04974 -0.08656,0.08601 -0.01291,0.02564 0.0204,0.06575 0,0.08601 -0.04561,0.04533 -0.119432,0.05046 -0.1731066,0.08601 -0.033947,0.0225 -0.057705,0.05734 -0.086557,0.08601 -0.028853,0.02867 -0.063922,0.05227 -0.086558,0.08601 -0.035785,0.05335 -0.050773,0.118686 -0.086557,0.172025 -0.022635,0.03374 -0.057705,0.05734 -0.086558,0.08601 -0.086558,0.08601 -0.1731062,0.172023 -0.2596601,0.258036 -0.028853,0.02867 -0.068301,0.04974 -0.086557,0.08601 -0.012907,0.02564 0.012907,0.06037 0,0.08601 -0.051934,0.103224 -0.2077281,0.154823 -0.2596601,0.258038 -0.012907,0.02564 0.020401,0.06575 0,0.08601 -0.020401,0.02028 -0.060744,-0.01282 -0.086558,0 -0.076715,0.03812 -0.1808684,0.205838 -0.2596587,0.258037 -0.1073545,0.07113 -0.2388582,0.100898 -0.3462139,0.172025 -0.171467,-0.0087 -0.040943,0.12669 -0.086558,0.172024 -0.020401,0.02028 -0.060744,-0.01282 -0.086558,0 -0.036499,0.01813 -0.050058,0.06787 -0.086558,0.08601 -0.025801,0.01282 -0.066157,-0.02028 -0.086558,0 -0.020401,0.02028 0.012907,0.06037 0,0.08601 -0.018244,0.03627 -0.068301,0.04974 -0.086557,0.08601 -0.013175,0.02618 0,0.219301 0,0.258038 0,0.229366 0,0.458732 0,0.688098 0,0.200696 0,0.40139 0,0.602086 0,0.114689 -0.022635,0.231594 0,0.344051 0.012639,0.06286 0.066157,0.111199 0.086557,0.172024 0.00906,0.0272 -0.01601,0.06215 0,0.08601 0.04527,0.06747 0.1241425,0.107154 0.1731063,0.172025 0.038708,0.05129 0.04093,0.12669 0.086557,0.172024 0.2314944,0.230049 0.2614602,0.08869 0.4327664,0.344049 0.015997,0.02385 -0.020401,0.06575 0,0.08601 0.3377944,0.335683 0.046483,-0.01991 0.2596589,0.08601 0.072987,0.03626 0.1001153,0.135758 0.1731075,0.172025 0.054399,0.02703 0.2918116,-0.02703 0.3462126,0 0.036499,0.01813 0.046968,0.07617 0.086557,0.08601 0.083966,0.02086 0.1742834,-0.01414 0.2596588,0 0.089992,0.01491 0.1701968,0.06823 0.2596601,0.08601 0.1131628,0.0225 0.2308088,0 0.3462138,0 0.173107,0 0.346213,0 0.51932,0 0.07084,0 0.493994,0.01256 0.51932,0 0.0258,-0.01282 0,-0.05734 0,-0.08601 0,-0.128021 -0.01291,-0.109778 0.08655,-0.258035 0.02263,-0.03373 0.07366,-0.04755 0.08656,-0.08601 0.01824,-0.0544 -0.01824,-0.117633 0,-0.172024 0.01291,-0.03847 0.0577,-0.05734 0.08656,-0.08601 0.02885,-0.08601 0.06866,-0.169133 0.08656,-0.258037 0.01136,-0.05623 0,-0.114688 0,-0.172024 0,-0.02867 -0.01291,-0.06037 0,-0.08601 0.01824,-0.03627 0.07366,-0.04755 0.08656,-0.08601 0,-0.391554 -0.0408,-0.005 0.08655,-0.258037 0.03871,-0.07693 -0.03871,-0.181106 0,-0.258038 0.01291,-0.02564 0.06615,0.02028 0.08656,0 0.0204,-0.02028 -0.01291,-0.06037 0,-0.08601 0.01824,-0.03627 0.0683,-0.04974 0.08655,-0.08601 0.01291,-0.02564 -0.0091,-0.05881 0,-0.08601 0.0204,-0.06082 0.06615,-0.111201 0.08656,-0.172025 0.0091,-0.0272 -0.01291,-0.06037 0,-0.08601 0.01824,-0.03627 0.07366,-0.04755 0.08656,-0.08601 0.06856,-0.204399 -0.102465,-0.156218 0.08656,-0.344049 0.0204,-0.02028 0.06075,0.01282 0.08656,0 0.0365,-0.01813 0.0577,-0.05734 0.08655,-0.08601 0.02885,-0.02867 0.0577,-0.05734 0.08656,-0.08601 0.02885,-0.02867 0.05006,-0.06787 0.08656,-0.08601 0.0258,-0.01282 0.0577,0 0.08656,0 0.0577,0 0.115411,0 0.173107,0 0.173106,0 0.346213,0 0.51932,0 0.0577,0 0.117618,-0.01575 0.173106,0 0.14939,0.04242 0.283377,0.129608 0.432767,0.172024 0.05549,0.01575 0.11652,-0.01129 0.173106,0 0.08947,0.01779 0.169666,0.07111 0.259659,0.08601 0.113841,0.01885 0.23081,0 0.346214,0 0.02885,0 0.06075,-0.01282 0.08656,0 0.144297,0.07169 0.0391,0.172024 0.25966,0.172024 0.08954,0 0.119624,0.02028 0.173107,-0.08601 0.0258,-0.05129 -0.01824,-0.117633 0,-0.172025 0.0204,-0.06082 0.07091,-0.109829 0.08656,-0.172024 0.01701,-0.06766 0,-0.426628 0,-0.516075 0,-0.05734 0,-0.114688 0,-0.172024 0,-0.02867 -0.01291,-0.06036 0,-0.08601 0.01824,-0.03626 0.0683,-0.04974 0.08655,-0.08601 0.01291,-0.02564 0,-0.05734 0,-0.08601 0,-0.05734 -0.01824,-0.117632 0,-0.172025 0.01291,-0.03846 0.07366,-0.04755 0.08656,-0.08601 0.01824,-0.0544 0,-0.114676 0,-0.172024 0,-0.05734 0,-0.114689 0,-0.172025 0,-0.09993 0.01961,-0.352087 0,-0.430061 -0.01566,-0.06219 -0.0577,-0.114689 -0.08656,-0.172026 -0.02885,-0.08601 -0.06866,-0.169132 -0.08655,-0.258036 -0.02263,-0.112456 0.02798,-0.23279 0,-0.34405 -0.01566,-0.06219 -0.06615,-0.1112 -0.08656,-0.172024 -0.0091,-0.0272 0.007,-0.0582 0,-0.08601 -0.02212,-0.08796 -0.06442,-0.170079 -0.08656,-0.258037 -0.02164,-0.08601 0.04328,-0.172026 0,-0.258037 -0.01291,-0.02564 -0.0577,0 -0.08656,0 -0.02885,-0.02867 -0.07366,-0.04755 -0.08656,-0.08601 0,-0.05734 0,-0.114689 0,-0.172025 -0.02885,0 -0.07366,0.02564 -0.08656,0 -0.0258,-0.0513 0.0258,-0.12074 0,-0.172025 -0.01291,-0.02564 -0.06075,0.01282 -0.08656,0 -0.03648,-0.01813 -0.0577,-0.05734 -0.08655,-0.08601 -0.02885,-0.02867 -0.0683,-0.04974 -0.08656,-0.08601 -0.01291,-0.02564 0.0204,-0.06575 0,-0.08601 -0.0408,-0.04054 -0.1215,0.02564 -0.173106,0 -0.03651,-0.01813 -0.05006,-0.06787 -0.08655,-0.08601 -0.05668,-0.02816 -0.355957,0.02544 -0.432767,0 -0.0612,-0.02028 -0.1119,-0.06575 -0.173106,-0.08601 -0.12983,-0.04301 -0.08656,0.08601 -0.25966,0 -0.0258,-0.01282 0.0204,-0.06575 0,-0.08601 -0.0204,-0.02028 -0.0577,0 -0.08656,0 -0.0577,0 -0.11541,0 -0.173106,0 -0.201958,0 -0.403915,0 -0.605874,0 -0.03897,0 -0.233318,0.01309 -0.259659,0 -0.03651,-0.01813 -0.05006,-0.06787 -0.08656,-0.08601 -0.0549,-0.02728 -0.376539,0.02793 -0.432766,0 -0.03648,-0.01813 -0.05006,-0.06787 -0.08656,-0.08601 -0.0258,-0.01282 -0.06074,0.01282 -0.08655,0 -0.03648,-0.01813 -0.05006,-0.06787 -0.08656,-0.08601 -0.0258,-0.01282 -0.06075,0.01282 -0.08656,0 -0.03651,-0.01813 -0.05006,-0.06787 -0.08656,-0.08601 -0.0258,-0.01282 -0.06075,0.01282 -0.08656,0 -0.360215,-0.178982 0.09253,0.0059 -0.08655,-0.172026 -0.0204,-0.02028 -0.0577,0 -0.08656,0 -0.205509,0 -0.05856,-0.007 -0.432766,0.08601 z"
       id="path829"
       inkscape:connector-curvature="0" />
    <path
       style="fill:none;stroke:#ffd740;stroke-width:1.27266526px;stroke-linecap:butt;stroke-linejoin:miter;stroke-opacity:1"
       d="m 18.713435,15.239039 c -0.144255,-0.08601 -0.303528,-0.151012 -0.432766,-0.258038 -0.04956,-0.04104 -0.05337,-0.117047 -0.08656,-0.172024 -0.07407,-0.122683 -0.210197,-0.282603 -0.25966,-0.430062 -0.0091,-0.0272 0.0091,-0.05881 0,-0.08601 -0.0204,-0.06082 -0.06615,-0.111201 -0.08656,-0.172025 -0.01561,-0.04655 0,-0.314747 0,-0.34405 0,-0.08601 -0.02737,-0.176438 0,-0.258037 0.01291,-0.03847 0.0683,-0.04974 0.08656,-0.08601 0.01291,-0.02564 -0.0204,-0.06575 0,-0.08601 0.0204,-0.02028 0.06616,0.02028 0.08656,0 0.0204,-0.02028 -0.0204,-0.06575 0,-0.08601 0.0035,-0.0034 0.314427,0 0.346214,0 0.08656,0 0.182243,-0.03847 0.259659,0 0.0258,0.01282 -0.0258,0.07319 0,0.08601 0.173107,0.08601 0.12983,-0.04301 0.25966,0 0.0612,0.02028 0.111898,0.06575 0.173106,0.08601 0.02737,0.009 0.06075,-0.01282 0.08656,0 0.0365,0.01813 0.05006,0.06787 0.08656,0.08601 0.213175,0.105922 -0.07813,-0.249671 0.259659,0.08601 0.0204,0.02028 -0.0204,0.06575 0,0.08601 0.0204,0.02028 0.05919,-0.009 0.08656,0 0.0612,0.02028 0.119432,0.05046 0.173106,0.08601 0.03395,0.0225 0.04785,0.07319 0.08656,0.08601 0.05475,0.01813 0.1215,-0.02564 0.173106,0 0.0258,0.01282 -0.0204,0.06575 0,0.08601 0.04081,0.04054 0.1215,-0.02564 0.173106,0 0.0365,0.01813 0.05006,0.06787 0.08656,0.08601 0.0258,0.01282 0.06075,-0.01282 0.08656,0 0.213907,0.10629 -0.02987,0.08601 0.173107,0.08601 0.02885,0 0.05919,0.009 0.08656,0 0.320215,-0.106074 0.108503,-0.129627 0.173108,-0.258036 0.01824,-0.03627 0.07366,-0.04755 0.08656,-0.08601 0.01824,-0.0544 0,-0.114677 0,-0.172024 0,-0.08601 -0.01422,-0.173196 0,-0.258037 0.015,-0.08943 0.06442,-0.17008 0.08656,-0.258038 0.02489,-0.09888 -0.04444,-0.25573 0,-0.344048 0.01291,-0.02564 0.06616,0.02028 0.08656,0 0.0408,-0.04054 -0.0408,-0.131479 0,-0.172025 0.0204,-0.02028 0.06615,0.02028 0.08656,0 0.0204,-0.02028 -0.01291,-0.06036 0,-0.08601 0.03961,-0.07874 0.196407,-0.151072 0.25966,-0.172024 0.05013,-0.01661 0.271208,0 0.346213,0 0.25966,0 0.51932,0 0.778979,0 0.23081,0 0.461618,0 0.692427,0 0.03897,0 0.233319,-0.0131 0.25966,0 0.132562,0.06587 0.06769,0.153274 0.173106,0.258036 0.315021,0.313053 0.06082,-0.09145 0.25966,0.172025 0.360482,0.04086 0.08693,0.301596 0.173107,0.430062 0.03578,0.05335 0.137322,0.03267 0.173106,0.08601 0.032,0.04771 -0.01399,0.116389 0,0.172024 0.01566,0.0622 0.0709,0.10983 0.08656,0.172025 0.01399,0.05563 -0.01824,0.117631 0,0.172024 0.01291,0.03847 0.07366,0.04755 0.08656,0.08601 0.01824,0.0544 0,0.114689 0,0.172024 0,0.08601 0,0.172024 0,0.258037 0,0.05734 0,0.114689 0,0.172024 0,0.05734 0.01399,0.11639 0,0.172025 -0.01565,0.0622 -0.06615,0.1112 -0.08656,0.172024 -0.0091,0.0272 0.007,0.0582 0,0.08601 -0.02212,0.08796 -0.06442,0.170079 -0.08656,0.258037 -0.007,0.02781 0.01291,0.06037 0,0.08601 -0.01824,0.03626 -0.07365,0.04755 -0.08655,0.08601 -0.0013,0.0039 -0.0063,0.417698 0,0.430061 0.180107,0.357962 -0.006,-0.09195 0.173107,0.08601 0.0035,0.0034 0,0.312462 0,0.344048 0,0.31538 0,0.630757 0,0.946137 0,0.02247 -0.0145,0.47283 0,0.516074 0.04081,0.121641 0.141813,0.219657 0.173106,0.344048 0.01399,0.05563 -0.03201,0.124319 0,0.172025 0.03578,0.05335 0.127488,0.04067 0.173107,0.08601 0.04561,0.04533 0.06616,0.1112 0.08656,0.172024 0.01824,0.0544 -0.0408,0.131479 0,0.172025 0.0204,0.02028 0.0577,0 0.08656,0 0,0.05734 -0.0258,0.12074 0,0.172026 0.01291,0.02564 0.0577,0 0.08656,0 0.02885,0.02867 0.07366,0.04755 0.08656,0.08601 0.01824,0.0544 -0.01824,0.117619 0,0.172024 0.01291,0.03847 0.0683,0.04974 0.08656,0.08601 0.01318,0.02618 0,0.2193 0,0.258037 0,0.04497 0.01136,0.321433 0,0.344049 -0.01824,0.03627 -0.0577,0.05734 -0.08656,0.08601 -0.02885,0.02867 -0.04785,0.07319 -0.08656,0.08601 -0.05475,0.01813 -0.116188,-0.0094 -0.173106,0 -0.117338,0.01944 -0.233362,0.04863 -0.346214,0.08601 -0.313781,0.103943 -0.06159,0.04082 -0.25966,0.172024 -0.05369,0.03556 -0.119431,0.05046 -0.173106,0.08601 -0.03395,0.0225 -0.05006,0.06787 -0.08656,0.08601 -0.05162,0.02564 -0.132306,-0.04054 -0.173107,0 -0.0204,0.02028 0.0258,0.07319 0,0.08601 -0.05162,0.02564 -0.115398,0 -0.173107,0 -0.0577,0 -0.118359,0.01813 -0.173106,0 -0.0612,-0.02028 -0.111899,-0.06575 -0.173106,-0.08601 -0.02737,-0.009 -0.05919,0.009 -0.08656,0 -0.122408,-0.04054 -0.226416,-0.124407 -0.346214,-0.172025 -0.175944,-0.06994 -0.280529,-0.07117 -0.432766,-0.172025 -0.03395,-0.0225 -0.05262,-0.06353 -0.08656,-0.08601 -0.05369,-0.03556 -0.11943,-0.05046 -0.173105,-0.08601 -0.03395,-0.0225 -0.05006,-0.06787 -0.08656,-0.08601 -0.0258,-0.01282 -0.06255,0.01591 -0.08656,0 -0.0679,-0.04498 -0.115409,-0.114677 -0.173107,-0.172025 -0.02885,-0.02867 -0.0683,-0.04974 -0.08656,-0.08601 -0.01291,-0.02564 0.0204,-0.06575 0,-0.08601 -0.0204,-0.02028 -0.06615,0.02028 -0.08656,0 -0.0204,-0.02028 0.01291,-0.06037 0,-0.08601 -0.03652,-0.07258 -0.136637,-0.09954 -0.17313,-0.172072 -0.01291,-0.02564 0.0204,-0.06575 0,-0.08601 -0.0204,-0.02028 -0.06616,0.02028 -0.08656,0 -0.0204,-0.02028 0.0204,-0.06575 0,-0.08601 -0.0204,-0.02028 -0.06615,0.02028 -0.08656,0 -0.0204,-0.02028 0.0091,-0.05881 0,-0.08601 -0.0204,-0.06082 -0.06616,-0.111201 -0.08656,-0.172025 -0.01721,-0.05129 0,-0.43274 0,-0.516074 0,-0.02867 0.01291,-0.06037 0,-0.08601 -0.01824,-0.03627 -0.0683,-0.04974 -0.08656,-0.08601 -0.01291,-0.02564 0.0204,-0.06575 0,-0.08601 -0.0204,-0.02028 -0.06616,0.02028 -0.08655,0 -0.0204,-0.02028 0,-0.05734 0,-0.08601 -0.0577,-0.05734 -0.107827,-0.123367 -0.173106,-0.172024 -0.05162,-0.03847 -0.1215,-0.04755 -0.173108,-0.08601 -0.06529,-0.04865 -0.10521,-0.127041 -0.173106,-0.172024 -0.03391,-0.02245 -0.414512,0.01814 -0.432767,0 -0.0204,-0.02028 0.0204,-0.06575 0,-0.08601 -0.01225,-0.01218 -0.241905,-0.0089 -0.25966,0 -0.396119,0.196822 0.367283,-0.03565 -0.25966,0.172025 -0.05432,0.018 -0.276533,0 -0.346212,0 -0.05687,0 -0.32586,0.01015 -0.346213,0 -0.0258,-0.01282 0.0204,-0.06575 0,-0.08601 -0.0204,-0.02028 -0.06615,0.02028 -0.08655,0 -0.0204,-0.02028 0.0258,-0.07319 0,-0.08601 -0.05162,-0.02564 -0.1215,0.02564 -0.173107,0 -0.0258,-0.01282 0.01291,-0.06037 0,-0.08601 -0.01824,-0.03627 -0.0683,-0.04974 -0.08656,-0.08601 -0.01318,-0.02618 0,-0.219302 0,-0.258038 0,-0.229367 0,-0.458733 0,-0.688099 0,-0.02867 -0.0204,-0.06575 0,-0.08601 0.0204,-0.02028 0.06615,0.02028 0.08656,0 0.0204,-0.02028 0,-0.05734 0,-0.08601 0,-0.06341 -0.01437,-0.39436 0,-0.430063 0.04791,-0.119053 0.115398,-0.229365 0.173107,-0.344048 z"
       id="path831"
       inkscape:connector-curvature="0" />
    <path
       style="fill:none;stroke:#ffd740;stroke-width:1.27266526px;stroke-linecap:butt;stroke-linejoin:miter;stroke-opacity:1"
       d="m 19.319308,24.786406 c -0.461618,0 -0.923235,0 -1.384853,0 -0.05977,0 -0.319896,-0.01308 -0.346213,0 -0.03649,0.01813 -0.05006,0.06787 -0.08656,0.08601 -0.119393,0.05932 -0.07742,-0.104175 -0.173107,0.08601 -0.01291,0.02564 0.0204,0.06575 0,0.08601 -0.0204,0.02028 -0.06075,-0.01282 -0.08655,0 -0.03649,0.01813 -0.05006,0.06787 -0.08656,0.08601 -0.0258,0.01282 -0.06616,-0.02028 -0.08656,0 -0.0204,0.02028 0.0204,0.06575 0,0.08601 -0.0204,0.02028 -0.06075,-0.01282 -0.08656,0 -0.07299,0.03627 -0.100112,0.135759 -0.173106,0.172026 -0.01941,0.0096 -0.325645,0 -0.346213,0 -0.173107,0 -0.346214,0 -0.51932,0 -0.288511,0 -0.577023,0 -0.865533,0 -0.115411,0 -0.230809,0 -0.346213,0 -0.0577,0 -0.116521,0.01129 -0.173106,0 -0.287062,-0.05706 -0.201957,-0.08028 -0.432766,-0.172026 -0.447934,-0.178052 -0.08161,0.03195 -0.51932,-0.258036 -0.957066,-0.634056 0.186082,0.184921 -0.346213,-0.344049 -0.04561,-0.04533 -0.127488,-0.04067 -0.173108,-0.08601 -0.04561,-0.04533 -0.05077,-0.118686 -0.08656,-0.172025 -0.02263,-0.03374 -0.0683,-0.04974 -0.08656,-0.08601 -0.0049,-0.0096 -0.0049,-0.420461 0,-0.430061 0.03651,-0.07253 0.127842,-0.104556 0.173107,-0.172026 0.03578,-0.05334 0.04094,-0.12669 0.08656,-0.172024 0.04561,-0.04533 0.127488,-0.04067 0.173107,-0.08601 0.0204,-0.02028 -0.0258,-0.07319 0,-0.08601 0.05162,-0.02564 0.125099,0.0318 0.173105,0 0.05369,-0.03556 0.04094,-0.12669 0.08656,-0.172025 0.0204,-0.02028 0.06616,0.02028 0.08656,0 0.0204,-0.02028 -0.0204,-0.06575 0,-0.08601 0.0204,-0.02028 0.06615,0.02028 0.08656,0 0.0204,-0.02028 -0.01291,-0.06036 0,-0.08601 0.01824,-0.03626 0.0683,-0.04974 0.08656,-0.08601 0.0258,-0.05129 -0.0258,-0.120741 0,-0.172025 0.01824,-0.03627 0.0683,-0.04974 0.08655,-0.08601 0.0258,-0.05129 -0.0258,-0.12074 0,-0.172024 0.01824,-0.03627 0.0683,-0.04974 0.08656,-0.08601 0.01287,-0.02558 0,-0.479892 0,-0.516073 0,-0.02867 -0.01291,-0.06037 0,-0.08601 0.01824,-0.03627 0.0683,-0.04975 0.08656,-0.08601 0.01291,-0.02564 -0.0204,-0.06575 0,-0.08601 0.04561,-0.04533 0.119432,-0.05046 0.173106,-0.08601 0.03395,-0.0225 0.0683,-0.04974 0.08655,-0.08601 0.01291,-0.02564 -0.0258,-0.07319 0,-0.08601 0.05162,-0.02564 0.117121,0.0139 0.173108,0 0.06258,-0.01555 0.110521,-0.07046 0.173106,-0.08601 0.06582,-0.01635 0.360289,0 0.432767,0 0.06968,0 0.291888,-0.01799 0.346212,0 0.0612,0.02028 0.11541,0.05734 0.173108,0.08601 0.0577,0.02867 0.127487,0.04067 0.173106,0.08601 0.0204,0.02028 -0.0204,0.06575 0,0.08601 0.04328,0.04301 0.216382,-0.04301 0.25966,0 0.0204,0.02028 -0.0204,0.06575 0,0.08601 0.0204,0.02028 0.0577,0 0.08656,0 0.02885,0 0.06615,0.02028 0.08656,0 0.04081,-0.04054 -0.01824,-0.117619 0,-0.172025 0.0204,-0.06082 0.07091,-0.10983 0.08656,-0.172024 0.01399,-0.05563 0,-0.11469 0,-0.172025 0,-0.172025 0,-0.344048 0,-0.516074 0,-0.02867 0,-0.05734 0,-0.08601 0,-0.02867 -0.0204,-0.06575 0,-0.08601 0.0204,-0.02028 0.0577,0 0.08656,0 0.08656,0 0.173106,0 0.259661,0 0.403915,0 0.807829,0 1.211745,0 0.04623,0 0.407995,-0.01231 0.432768,0 0.01657,0.0082 0.337928,0.327585 0.346212,0.344049 0.03462,0.06881 -0.03463,0.189227 0,0.258037 0.01824,0.03627 0.0683,0.04974 0.08656,0.08601 0.02348,0.04666 -0.02368,0.320515 0,0.344049 0.0204,0.02028 0.0577,0 0.08656,0 0.0577,0 0.11541,0 0.173106,0 0.25966,0 0.51932,0 0.778981,0 0.02885,0 0.0577,0 0.08656,0 0.02885,0 0.06616,0.02028 0.08656,0 0.179081,-0.177962 -0.273662,0.007 0.08656,-0.172024 0.07106,-0.03531 0.239649,0.06613 0.25966,0.08601 0.04561,0.04533 0.05077,0.118685 0.08656,0.172024 0.05252,0.07831 0.221303,0.181802 0.25966,0.258038 0.01287,0.02558 0,0.479891 0,0.516074 0,0.02867 0,0.05734 0,0.08601 0,0.02867 0.0204,0.06575 0,0.08601 -0.04561,0.04533 -0.111898,0.06575 -0.173106,0.08601 -0.05475,0.01813 -0.132305,-0.04054 -0.173106,0 -0.0204,0.02028 0,0.05734 0,0.08601 0,0.07282 -0.01551,0.29781 0,0.344049 0.01291,0.03847 0.0577,0.05734 0.08656,0.08601 0.0577,0.05734 0.124142,0.107154 0.173106,0.172025 0.03871,0.05129 0.04092,0.12669 0.08656,0.172026 0.0204,0.02028 0.05919,-0.009 0.08656,0 0.0612,0.02028 0.119431,0.05046 0.173106,0.08601 0.03395,0.0225 0.04785,0.07319 0.08656,0.08601 0.05475,0.01813 0.118373,-0.01813 0.173108,0 0.07742,0.02564 0.100112,0.135758 0.173106,0.172025 0.119394,0.05932 0.07742,-0.104175 0.173107,0.08601 0.01291,0.02564 0,0.05734 0,0.08601 0,0.08898 0.0204,0.118875 -0.08655,0.172025 -0.0258,0.01282 -0.06616,-0.02028 -0.08656,0 -0.0204,0.02028 0.0204,0.06575 0,0.08601 -0.04081,0.04054 -0.132306,-0.04054 -0.173107,0 -0.0204,0.02028 0.0204,0.06575 0,0.08601 -0.0408,0.04054 -0.121499,-0.02564 -0.173107,0 -0.02885,0.02867 -0.0577,0.05734 -0.08656,0.08601 -0.02885,0.02867 -0.05006,0.06787 -0.08655,0.08601 -0.0258,0.01282 -0.0577,0 -0.08656,0 -0.02885,0.02867 -0.05006,0.06787 -0.08656,0.08601 -0.0258,0.01282 -0.06075,-0.01282 -0.08656,0 -0.07299,0.03627 -0.100112,0.135759 -0.173107,0.172025 -0.05162,0.02564 -0.1215,-0.02564 -0.173106,0 -0.03649,0.01813 -0.05006,0.06787 -0.08656,0.08601 -0.02634,0.0131 -0.220679,0 -0.25966,0 -0.201957,0 -0.403915,0 -0.605873,0 z"
       id="path835"
       inkscape:connector-curvature="0" />
    <path
       style="fill:none;stroke:#ffd740;stroke-width:1px;stroke-linecap:butt;stroke-linejoin:miter;stroke-opacity:1"
       d="M 6.440678,8.7457627 C 6.3477081,8.5687886 6.0732975,8.5176428 5.9661017,8.3389831 5.9293338,8.2777033 5.9429482,8.1913972 5.8983051,8.1355932 5.8474041,8.0719669 5.7438041,8.0651851 5.6949153,8 c -0.027119,-0.036158 0.025071,-0.097986 0,-0.1355932 C 5.6668853,7.8223608 5.5950543,7.8323418 5.559322,7.7966098 5.52359,7.7608778 5.527257,7.6967488 5.491525,7.6610165 c -0.01598,-0.01598 -0.051817,0.01598 -0.067797,0 -0.01598,-0.01598 0.01598,-0.051817 0,-0.067797 -0.035732,-0.035732 -0.1075628,-0.025751 -0.1355932,-0.067797 -0.025071,-0.037607 0.014293,-0.092715 0,-0.1355932 -0.070538,-0.2116149 -0.045198,0.022599 -0.1355932,-0.067797 -0.01386,-0.01386 0.01344,-0.176509 0,-0.2033898 -0.014293,-0.028586 -0.053504,-0.039211 -0.067797,-0.067797 -0.010107,-0.020213 0,-0.045198 0,-0.067797 0,-0.022599 0,-0.045198 0,-0.067797 0,-0.1355932 0,-0.2711864 0,-0.4067796 0,-0.022599 -0.01598,-0.051817 0,-0.067797 0.01598,-0.01598 0.047583,0.010107 0.067797,0 C 5.2338983,6.4 5.2745763,6.2779661 5.3559322,6.2372881 c 0.042612,-0.021306 0.2285748,0.021306 0.2711864,0 0.028586,-0.014293 0.039211,-0.053504 0.067797,-0.067797 0.02001,-0.010005 0.4047316,0 0.4745762,0 0.042514,0 0.262812,0.00837 0.2711865,0 0.035732,-0.035732 0.032065,-0.099861 0.067797,-0.1355932 0.01598,-0.01598 0.051817,0.01598 0.067797,0 0.01598,-0.01598 -0.010107,-0.047584 0,-0.067797 0.028586,-0.057171 0.1070076,-0.078422 0.1355932,-0.1355932 0.035024,-0.070047 -0.061596,-0.160259 0.067797,-0.2033899 0.034704,-0.011568 0.3583111,0 0.4067797,0 0.1129943,0 0.2259887,0 0.338983,0 0.022599,0 0.045198,0 0.067797,0 0.022599,0 0.047584,-0.010107 0.067797,0 0.028586,0.014293 0.039211,0.053504 0.067797,0.067797 0.020213,0.010107 0.047583,-0.010107 0.067797,0 0.057171,0.028586 0.078422,0.1070076 0.1355932,0.1355932 0.020213,0.010107 0.051817,-0.01598 0.067797,0 0.01598,0.01598 -0.01598,0.051817 0,0.067797 0.01598,0.01598 0.051817,-0.01598 0.067797,0 0.01598,0.01598 -0.010106,0.047584 0,0.067797 0.014293,0.028586 0.053504,0.039211 0.067797,0.067797 0.010106,0.020213 -0.01598,0.051817 0,0.067797 0.01598,0.01598 0.045198,0 0.067797,0 0.035452,0 0.2533599,0.00891 0.2711865,0 0.028586,-0.014293 0.039211,-0.053504 0.067797,-0.067797 0.020613,-0.010306 0.2243714,0 0.2711864,0 0.1355932,0 0.2711865,0 0.4067797,0 0.022599,0 0.045198,0 0.067797,0 0.022599,0 0.047584,-0.010107 0.067797,0 0.028586,0.014293 0.039211,0.053504 0.067797,0.067797 0.020213,0.010107 0.047584,-0.010107 0.067797,0 0.028586,0.014293 0.045198,0.045198 0.067797,0.067797 0.1753077,0.1753077 0.1355933,0.2592952 0.1355933,0.4745763 0,0.022599 0,0.045198 0,0.067797 0,0.022599 0.010107,0.047584 0,0.067797 -0.028586,0.057171 -0.1070077,0.078422 -0.1355933,0.1355932 -0.010084,0.020168 0,0.3782602 0,0.4067797 0,0.022599 -0.012536,0.048993 0,0.067797 0.050536,0.075803 0.1973943,0.1973943 0.2711865,0.2711864 0.035692,0.035693 0.1671807,0.1852853 0.2033895,0.2033899 0.04043,0.020213 0.103634,-0.03196 0.135594,0 0.01598,0.01598 -0.01598,0.051817 0,0.067797 0.01598,0.01598 0.05182,-0.01598 0.0678,0 0.01598,0.01598 -0.01598,0.051817 0,0.067797 0.01598,0.01598 0.05182,-0.01598 0.0678,0 0.01598,0.01598 -0.01598,0.051817 0,0.067797 0.03196,0.03196 0.09517,-0.020213 0.135593,0 0.02859,0.014293 0.03921,0.053504 0.0678,0.067797 0.01519,0.0076 0.255075,0 0.271186,0 0.180791,0 0.361582,0 0.542373,0 0.20339,0 0.40678,0 0.610169,0 0.05677,0 0.287426,0.012889 0.338983,0 0.163919,-0.040988 0.1,-0.058066 0.203373,-0.1355975 0.06518,-0.048889 0.130511,-0.099154 0.20339,-0.1355932 0.04043,-0.020213 0.09517,0.020213 0.135593,0 0.02859,-0.014293 0.03921,-0.053504 0.0678,-0.067797 0.0093,-0.00463 0.39752,-0.00463 0.40678,0 0.02425,0.012124 0.25239,0.2429922 0.271186,0.2711864 0.02803,0.042046 0.03977,0.093548 0.0678,0.1355932 0.01773,0.026592 0.05769,0.037477 0.0678,0.067797 0.01429,0.042878 -0.01679,0.093628 0,0.1355933 0.03026,0.075653 0.09915,0.1305106 0.135593,0.2033898 0.01011,0.020213 -0.01011,0.047584 0,0.067797 0.01429,0.028586 0.05769,0.037477 0.0678,0.067797 0.01429,0.042878 -0.01096,0.091745 0,0.1355932 0.01226,0.049024 0.05182,0.087654 0.0678,0.1355933 0.01418,0.042553 0,0.2166077 0,0.2711864 0,0.016443 0.0022,0.2012095 0,0.2033898 -0.01598,0.01598 -0.0452,0 -0.0678,0 0,0.045198 0.02021,0.095167 0,0.1355932 -0.01011,0.020213 -0.04758,-0.010106 -0.0678,0 -0.02858,0.014293 -0.0535,0.039211 -0.0678,0.067797 -0.01011,0.020213 0.01011,0.047583 0,0.067797 -0.01429,0.028586 -0.0452,0.045198 -0.0678,0.067797 -0.0226,0.022599 -0.03748,0.05769 -0.0678,0.067797 -0.384181,0 -0.0226,-0.045198 -0.135594,0.067797 -0.03196,0.03196 -0.09517,-0.020213 -0.135593,0 -0.05717,0.028586 -0.07842,0.1070076 -0.135593,0.1355936 -0.02021,0.01011 -0.0452,0 -0.0678,0 -0.04201,0 -0.385567,-0.01061 -0.406779,0 -0.02021,0.01011 0,0.0452 0,0.0678 -0.0452,0.0226 -0.08765,0.05182 -0.135594,0.0678 -0.02144,0.0071 -0.0452,0 -0.0678,0 -0.06385,0 -0.300416,-0.01286 -0.338983,0 -0.03032,0.01011 -0.03921,0.0535 -0.0678,0.0678 -0.02021,0.01011 -0.04636,-0.0071 -0.0678,0 -0.04794,0.01598 -0.08765,0.05182 -0.135594,0.0678 -0.02144,0.0071 -0.05182,-0.01598 -0.0678,0 -0.01598,0.01598 0.02021,0.05769 0,0.0678 -0.04043,0.02021 -0.09174,-0.01096 -0.135593,0 -0.04902,0.01226 -0.08765,0.05182 -0.135594,0.0678 -0.02144,0.0071 -0.04636,-0.0071 -0.0678,0 -0.09588,0.03196 -0.175308,0.103633 -0.271187,0.135593 -0.02144,0.0071 -0.04758,-0.01011 -0.0678,0 -0.02859,0.01429 -0.03748,0.05769 -0.0678,0.0678 -0.04288,0.01429 -0.09272,-0.01429 -0.135593,0 -0.03032,0.01011 -0.0412,0.05007 -0.0678,0.0678 -0.04204,0.02803 -0.09039,0.0452 -0.135593,0.0678 -0.0452,0.0226 -0.08657,0.05554 -0.135593,0.0678 -0.07023,0.01756 -0.193447,0 -0.271187,0 -0.225988,0 -0.451977,0 -0.6779657,0 -0.078757,0 -0.2775223,-0.01536 -0.3389831,0 -0.049024,0.01226 -0.087654,0.05182 -0.1355932,0.0678 -0.021439,0.0071 -0.047584,-0.01011 -0.067797,0 -0.028586,0.01429 -0.037477,0.05769 -0.067797,0.0678 -0.2935335,0.09785 0.024918,-0.129606 -0.2711865,0.0678 -0.027853,0.01857 -0.1848213,0.175537 -0.2033898,0.20339 -0.02803,0.04205 -0.032065,0.09986 -0.067797,0.135593 -0.01598,0.01598 -0.047584,-0.01011 -0.067797,0 -0.028586,0.01429 -0.045198,0.0452 -0.067797,0.0678 -0.022599,0.0226 -0.053504,0.03921 -0.067797,0.0678 -0.010107,0.02021 0.010106,0.04758 0,0.0678 -0.028586,0.05717 -0.1070077,0.07842 -0.1355933,0.135593 -0.010107,0.02021 0.01598,0.05182 0,0.0678 -0.035732,0.03573 -0.099861,0.03206 -0.1355932,0.0678 -0.01598,0.01598 0.01598,0.05182 0,0.0678 C 8.0518168,12.01598 8.0159798,11.98402 8,12 c -0.01598,0.01598 0.01598,0.05182 0,0.0678 -0.01598,0.01598 -0.051817,-0.01598 -0.067797,0 -0.1402736,0.140273 0.2143566,-0.0055 -0.067797,0.135593 -0.093516,0.04676 -0.060642,-0.08211 -0.1355932,0.0678 -0.010107,0.02021 0.01598,0.05182 0,0.0678 -0.00434,0.0043 -0.2585579,0.127174 -0.2711865,0.135593 -0.053184,0.03546 -0.078422,0.107008 -0.1355932,0.135593 -0.063919,0.03196 -0.1439283,0.02816 -0.2033898,0.0678 -0.018803,0.01254 0,0.0452 0,0.0678 -0.022599,0.0226 -0.039211,0.0535 -0.067797,0.0678 -0.020213,0.01011 -0.047584,-0.01011 -0.067797,0 -0.028586,0.01429 -0.039211,0.0535 -0.067797,0.0678 -0.042612,0.02131 -0.2285747,-0.02131 -0.2711864,0 -0.028586,0.01429 -0.037477,0.05769 -0.067797,0.0678 -0.056151,0.01872 -0.2958683,-0.02156 -0.3389831,0 -0.028586,0.01429 -0.039211,0.0535 -0.067797,0.0678 -0.020213,0.01011 -0.047583,-0.01011 -0.067797,0 -0.028586,0.01429 -0.045198,0.0452 -0.067797,0.0678 -0.022599,0.0226 -0.053504,0.03921 -0.067797,0.0678 -0.020213,0.04043 0.020213,0.09517 0,0.135594 -0.028586,0.05717 -0.1070077,0.07842 -0.1355932,0.135593 -0.01344,0.02688 0.01386,0.18953 0,0.20339 -0.01598,0.01598 -0.051817,-0.01598 -0.067797,0 -0.01598,0.01598 0.010107,0.04758 0,0.0678 -0.014293,0.02859 -0.050069,0.0412 -0.067797,0.0678 -0.2457825,0.491565 0.071464,-0.107196 -0.1355933,0.20339 -0.02803,0.04204 -0.032065,0.09986 -0.067797,0.135593 -0.01598,0.01598 -0.051817,-0.01598 -0.067797,0 -0.01598,0.01598 0.01598,0.05182 0,0.0678 -0.00218,0.0022 -0.1869473,0 -0.2033898,0 -0.067797,0 -0.1355932,0 -0.2033898,0 -0.022599,0 -0.047584,0.01011 -0.067797,0 -0.028586,-0.01429 -0.04284,-0.04783 -0.067797,-0.0678 -0.088234,-0.07059 -0.1853947,-0.129854 -0.2711864,-0.20339 -0.072797,-0.0624 -0.12537,-0.147661 -0.2033898,-0.20339 -0.08224,-0.05874 -0.1870951,-0.07953 -0.2711865,-0.135593 -0.2012731,-0.134182 -0.089858,-0.157654 -0.2711864,-0.338983 -0.035732,-0.03573 -0.099861,-0.03206 -0.1355932,-0.0678 -0.01598,-0.01598 0.01598,-0.05182 0,-0.0678 -0.01598,-0.01598 -0.051817,0.01598 -0.067797,0 -0.01598,-0.01598 0,-0.0452 0,-0.0678 0,-0.0452 0.020213,-0.09517 0,-0.135593 -0.010107,-0.02021 -0.05769,0.02021 -0.067797,0 -0.00797,-0.01594 0,-0.226649 0,-0.271187 0,-0.158192 0,-0.316384 0,-0.474576 0,-0.01611 -0.0076,-0.255991 0,-0.271186 0.014293,-0.02859 0.053504,-0.03921 0.067797,-0.0678 0.020213,-0.04043 -0.020213,-0.09517 0,-0.135593 0.040678,-0.08136 0.1627119,-0.122034 0.2033899,-0.20339 0.010107,-0.02021 -0.01598,-0.05182 0,-0.0678 0.1402736,-0.140274 -0.00548,0.214356 0.1355932,-0.0678 0.010107,-0.02021 -0.01598,-0.05182 0,-0.0678 0.01598,-0.01598 0.051817,0.01598 0.067797,0 0.01598,-0.01598 -0.01598,-0.05182 0,-0.0678 0.01598,-0.01598 0.051817,0.01598 0.067797,0 0.01598,-0.01598 -0.01598,-0.05182 0,-0.0678 0.01598,-0.01598 0.047584,0.01011 0.067797,0 0.028586,-0.01429 0.045198,-0.0452 0.067797,-0.0678 0.022599,-0.0226 0.053504,-0.03921 0.067797,-0.0678 0.010107,-0.02021 -0.01598,-0.05182 0,-0.0678 0.01598,-0.01598 0.047583,0.01011 0.067797,0 0.028585,-0.01429 0.039211,-0.0535 0.067797,-0.0678 0.020213,-0.01011 0.051817,0.01598 0.067797,0 0.01598,-0.01598 -0.01598,-0.05182 0,-0.0678 0.035732,-0.03573 0.093547,-0.03977 0.1355932,-0.0678 0.099761,-0.06651 0.1714255,-0.204679 0.2711864,-0.271186 0.018803,-0.01254 0.048993,0.01254 0.067797,0 0.045198,-0.0452 0.090395,-0.0904 0.1355932,-0.135593 0.022599,0 0.047583,0.01011 0.067797,0 0.028586,-0.01429 0.039211,-0.0535 0.067797,-0.0678 0.020213,-0.01011 0.051817,0.01598 0.067797,0 0.01598,-0.01598 -0.01598,-0.05182 0,-0.0678 0.035732,-0.03573 0.093548,-0.03977 0.1355932,-0.0678 0.053184,-0.03546 0.090396,-0.0904 0.1355932,-0.1355933 0.035452,-0.035452 0.2622732,-0.2444466 0.2711865,-0.2711864 0.014293,-0.042878 -0.020213,-0.095167 0,-0.1355933 0.010107,-0.020213 0.051817,0.01598 0.067797,0 0.01386,-0.01386 -0.01344,-0.176509 0,-0.2033898 0.1410766,-0.2821532 -0.00468,0.072477 0.1355932,-0.067797 0.03196,-0.03196 -0.020213,-0.095167 0,-0.1355932 0.014293,-0.028586 0.053504,-0.039211 0.067797,-0.067797 0.010107,-0.020213 0,-0.045198 0,-0.067797 0,-0.180791 -0.018079,-0.054237 0.2711865,-0.2711865 z"
       id="path828"
       inkscape:connector-curvature="0" />
    <path
       style="fill:none;stroke:#ffd740;stroke-width:1px;stroke-linecap:butt;stroke-linejoin:miter;stroke-opacity:1"
       d="M 20,7.2542373 C 19.864407,7.2090393 19.717316,7.1895563 19.59322,7.1186441 19.54935,7.0935731 19.56116,7.0187831 19.52542,6.9830508 19.4678,6.9254348 19.384626,6.8996208 19.32203,6.8474576 19.19927,6.7451573 19.110885,6.6043535 18.983047,6.5084746 c -0.04043,-0.03032 -0.09517,-0.037477 -0.135593,-0.067797 -0.05114,-0.038352 -0.08241,-0.1001372 -0.135594,-0.1355933 -0.105205,-0.070137 -0.04411,0.1151683 -0.135593,-0.067797 -0.0089,-0.017826 0,-0.2357342 0,-0.2711864 0,-0.030533 -0.01032,-0.182757 0,-0.2033898 0.04705,-0.094105 0.120632,-0.067797 0.20339,-0.067797 0.135593,0 0.271186,0 0.40678,0 0.06026,0 0.107667,0.01598 0.135593,-0.067797 0.01429,-0.042878 0,-0.090395 0,-0.1355932 0,-0.045198 0,-0.090395 0,-0.1355932 0,-0.1581921 0,-0.3163842 0,-0.4745763 0,-0.030533 -0.01032,-0.182757 0,-0.2033898 0.141077,-0.2821532 -0.0047,0.072477 0.135593,-0.067797 0.04606,-0.046056 -0.06932,-0.1348312 0.0678,-0.2033898 0.02021,-0.010107 0.0452,0 0.0678,0 0.0226,0 0.0452,0 0.0678,0 0.135593,0 0.271186,0 0.40678,0 0.293785,0 0.58757,0 0.881356,0 0.06569,0 0.366354,-0.013475 0.406779,0 0.04794,0.01598 0.08657,0.055541 0.135593,0.067797 0.05156,0.012889 0.282211,0 0.338983,0 0.07848,0 0.278456,0.015132 0.338984,0 0.196625,-0.049156 0.07934,-0.052893 0.203389,-0.1355932 0.01263,-0.00842 0.266842,-0.1312489 0.271187,-0.1355933 0.01598,-0.01598 -0.01598,-0.051817 0,-0.067797 0.01598,-0.01598 0.0452,0 0.0678,0 0.0678,0 0.135594,0 0.20339,0 0.180791,0 0.361582,0 0.542373,0 0.01163,0 0.381919,-0.00829 0.40678,0 0.03032,0.010107 0.03921,0.053504 0.0678,0.067797 0.02021,0.010107 0.04636,-0.00715 0.0678,0 0.04794,0.01598 0.08604,0.057886 0.135593,0.067797 0.06648,0.013296 0.135593,0 0.20339,0 0.0904,0 0.180791,0 0.271186,0 0.0226,0 0.04758,-0.010107 0.0678,0 0.02859,0.014293 0.03921,0.053504 0.0678,0.067797 0.04043,0.020213 0.09517,-0.020213 0.135593,0 0.02858,0.014293 0.03921,0.053504 0.0678,0.067797 0.06064,0.030319 0.14275,-0.03032 0.203389,0 0.05717,0.028585 0.08446,0.097242 0.135594,0.1355932 0.04043,0.03032 0.09986,0.032065 0.135593,0.067797 0.03573,0.035732 0.02737,0.1052736 0.0678,0.1355932 0.05717,0.042878 0.143929,0.028156 0.20339,0.067797 0.0188,0.012536 -0.01598,0.051817 0,0.067797 0.07146,0.071464 0.190335,0.074954 0.271187,0.1355933 0.0019,0.0014 0.254848,0.2385097 0.271186,0.2711864 0.01011,0.020213 -0.01598,0.051817 0,0.067797 0.03573,0.035732 0.09986,0.032065 0.135593,0.067797 0.03196,0.03196 -0.02021,0.095167 0,0.1355932 0.01429,0.028586 0.0535,0.039211 0.0678,0.067797 0.01011,0.020213 -0.01011,0.047584 0,0.067797 0.01429,0.028586 0.0535,0.039211 0.0678,0.067797 0.0222,0.044394 -0.02005,0.2788181 0,0.338983 0.01598,0.04794 0.05182,0.087654 0.0678,0.1355932 0.0071,0.021439 -0.0071,0.046358 0,0.067797 0.03196,0.095879 0.103634,0.1753076 0.135593,0.2711865 0.0071,0.021439 -0.01011,0.047584 0,0.067797 0.04068,0.081356 0.162712,0.1220339 0.20339,0.2033898 0.01011,0.020213 -0.01011,0.047584 0,0.067797 0.141077,0.2821533 -0.0047,-0.072477 0.135593,0.067797 0.01598,0.01598 -0.01598,0.051817 0,0.067797 0.03573,0.035732 0.09986,0.032065 0.135594,0.067797 0.01598,0.01598 -0.01011,0.047583 0,0.067797 0.05053,0.1010652 0.191287,0.1234907 0.271186,0.2033898 0.01598,0.01598 -0.01598,0.051817 0,0.067797 0.03573,0.035732 0.09986,0.032065 0.135593,0.067797 0.01598,0.01598 -0.01011,0.047584 0,0.067797 0.02859,0.057171 0.115381,0.074954 0.135594,0.1355933 0.01429,0.042878 -0.02507,0.097986 0,0.1355932 0.02803,0.042046 0.107562,0.025751 0.135593,0.067797 0.02507,0.037607 -0.01429,0.092715 0,0.1355932 0.02021,0.060639 0.11538,0.074954 0.135593,0.1355932 0.0043,0.01284 0.0043,0.3939395 0,0.4067797 -0.03209,0.096262 -0.131622,0.067797 -0.20339,0.067797 -0.158192,0 -0.316384,0 -0.474576,0 -0.0452,0 -0.0904,0 -0.135593,0 -0.0226,0 -0.04758,-0.010107 -0.0678,0 -0.02858,0.014293 -0.03921,0.053504 -0.0678,0.067797 -0.04043,0.020213 -0.103633,-0.03196 -0.135593,0 -0.140273,0.1402736 0.214357,-0.00548 -0.0678,0.1355932 -0.02021,0.010107 -0.04899,-0.012536 -0.0678,0 -0.05318,0.035456 -0.0904,0.090395 -0.135593,0.1355933 -0.0226,0.022599 -0.03921,0.053504 -0.0678,0.067797 -0.02021,0.010106 -0.0452,0 -0.0678,0 -0.0452,0.045198 -0.0904,0.090395 -0.135594,0.1355932 -0.0452,0.045198 -0.100137,0.082409 -0.135593,0.1355932 -0.02803,0.042046 -0.03206,0.099861 -0.0678,0.1355932 -0.01598,0.01598 -0.04758,-0.010107 -0.0678,0 -0.05717,0.028586 -0.07842,0.1070077 -0.135593,0.1355932 -0.02021,0.010107 -0.0452,0 -0.0678,0 -0.0226,0 -0.0452,0 -0.0678,0 -0.112994,0 -0.225988,0 -0.338983,0 -0.180791,0 -0.361581,0 -0.542372,0 -0.0678,0 -0.139073,0.021439 -0.20339,0 -0.03032,-0.010106 -0.03921,-0.053504 -0.0678,-0.067797 -0.02021,-0.010106 -0.0452,0 -0.0678,0 -0.0226,0 -0.0452,0 -0.0678,0 -0.112994,0 -0.225989,0 -0.338983,0 -0.338983,0 -0.677966,0 -1.016949,0 -0.293786,0 -0.587571,0 -0.881356,0 -0.04036,0 -0.381346,-0.012717 -0.40678,0 -0.02021,0.010107 0.01598,0.051817 0,0.067797 -0.01598,0.01598 -0.04758,-0.010106 -0.0678,0 -0.02858,0.014293 -0.0452,0.045198 -0.0678,0.067797 -0.0904,0.090395 -0.180791,0.1807909 -0.271187,0.2711864 -0.0226,0.022599 -0.03748,0.05769 -0.0678,0.067796 -0.04288,0.01429 -0.09272,-0.01429 -0.135593,0 -0.03032,0.01011 -0.04121,0.05007 -0.0678,0.0678 -0.04205,0.02803 -0.08765,0.05182 -0.135593,0.0678 -0.02144,0.0071 -0.05182,-0.01598 -0.0678,0 -0.01598,0.01598 0.01598,0.05182 0,0.0678 -0.01598,0.01598 -0.05182,-0.01598 -0.0678,0 -0.01598,0.01598 0.01598,0.05182 0,0.0678 -0.03573,0.03573 -0.09986,0.03206 -0.135594,0.0678 -0.01598,0.01598 0.01598,0.05182 0,0.0678 -6.4e-5,6.5e-5 -0.203082,-1.02e-4 -0.20339,0 -0.03032,0.01011 -0.0452,0.0452 -0.0678,0.0678 -0.0452,0.0226 -0.08657,0.05554 -0.135593,0.0678 -0.04385,0.01096 -0.0904,0 -0.135594,0 -0.112994,0 -0.225988,0 -0.338983,0 -0.203389,0 -0.406779,0 -0.610169,0 -0.0226,0 -0.05182,0.01598 -0.0678,0 -0.01598,-0.01598 0.01598,-0.05182 0,-0.0678 -0.01598,-0.01598 -0.0452,0 -0.0678,0 -0.0904,0 -0.180791,0 -0.271187,0 -0.0226,0 -0.05182,0.01598 -0.0678,0 -0.01598,-0.01598 0.01598,-0.05182 0,-0.0678 -0.03196,-0.03196 -0.103634,0.03196 -0.135594,0 -0.03573,-0.03573 -0.03206,-0.09986 -0.0678,-0.135593 -0.01598,-0.01598 -0.04758,0.01011 -0.0678,0 -0.20675,-0.103375 0.123996,-0.05375 -0.20339,-0.135593 -0.04385,-0.01096 -0.09799,0.02507 -0.135593,0 -0.04205,-0.02803 -0.03206,-0.09986 -0.0678,-0.135594 -0.03196,-0.03196 -0.09517,0.02021 -0.135594,0 -0.310278,-0.1551385 0.28769,0.0281 -0.20339,-0.1355925 -0.02144,-0.00715 -0.04758,0.010107 -0.0678,0 -0.02859,-0.014293 -0.04121,-0.050069 -0.0678,-0.067797 -0.04205,-0.02803 -0.09355,-0.039766 -0.135593,-0.067797 -0.02659,-0.017728 -0.03921,-0.053504 -0.0678,-0.067797 -0.02021,-0.010107 -0.05182,0.01598 -0.0678,0 -0.01598,-0.01598 0.01598,-0.051817 0,-0.067797 -0.01598,-0.01598 -0.05182,0.01598 -0.0678,0 -0.03573,-0.035732 -0.03206,-0.099861 -0.0678,-0.1355932 -0.01598,-0.01598 -0.05182,0.01598 -0.0678,0 -0.03573,-0.035732 -0.03206,-0.099861 -0.0678,-0.1355932 -0.01598,-0.01598 -0.05182,0.01598 -0.0678,0 -0.01631,-0.016314 0.01631,-0.2548725 0,-0.2711864 -0.01598,-0.01598 -0.05182,0.01598 -0.0678,0 -0.01598,-0.01598 0,-0.045198 0,-0.067797 0,-0.031966 -0.0031,-0.3359104 0,-0.3389831 0.01858,-0.018584 0.291311,0.015891 0.338983,0 0.491079,-0.163693 -0.106888,0.019546 0.20339,-0.1355932 0.03595,-0.017974 0.292861,0.015374 0.338983,0 0.03032,-0.010107 0.03921,-0.053504 0.0678,-0.067797 0.02021,-0.010107 0.0452,0 0.0678,0 0.0226,0 0.0452,0 0.0678,0 0.135593,0 0.271186,0 0.40678,0 0.04455,0 0.165139,0.01275 0.203389,0 0.491079,-0.1636931 -0.106888,0.019546 0.20339,-0.1355932 0.02021,-0.010107 0.04758,0.010106 0.0678,0 0.02858,-0.014293 0.0412,-0.050069 0.0678,-0.067797 0.04205,-0.02803 0.09986,-0.032065 0.135594,-0.067797 0.01598,-0.01598 -0.01598,-0.051817 0,-0.067797 0.01598,-0.01598 0.0452,0 0.0678,0 0.0226,-0.045198 0.03206,-0.099861 0.0678,-0.1355932 0.01598,-0.01598 0.05182,0.01598 0.0678,0 0.01598,-0.01598 -0.01011,-0.047584 0,-0.067797 0.01429,-0.028586 0.0535,-0.039211 0.0678,-0.067797 0.01011,-0.020213 -0.01598,-0.051817 0,-0.067797 0.01598,-0.01598 0.04758,0.010107 0.0678,0 0.018,-0.009 0.194389,-0.1853891 0.20339,-0.2033899 0.01011,-0.020213 -0.01598,-0.051817 0,-0.067797 0.01598,-0.01598 0.0452,0 0.0678,0 C 19.864407,7.4350282 19.932203,7.3446328 20,7.2542373 Z"
       id="path830"
       inkscape:connector-curvature="0" />
    <path
       style="fill:none;stroke:#ffd740;stroke-width:1px;stroke-linecap:butt;stroke-linejoin:miter;stroke-opacity:1"
       d="m 9.6949153,25.830508 c -0.4566248,-0.0761 -0.2838286,-0.0063 -0.5423729,-0.135593 -0.045198,-0.0226 -0.095167,-0.03748 -0.1355932,-0.0678 -0.051136,-0.03835 -0.090396,-0.0904 -0.1355933,-0.135594 -0.067797,-0.0678 -0.1176331,-0.160511 -0.2033898,-0.203389 -0.040426,-0.02021 -0.095167,0.02021 -0.1355932,0 -0.020213,-0.01011 0.010106,-0.04758 0,-0.0678 -0.014293,-0.02859 -0.039211,-0.0535 -0.067797,-0.0678 -0.020213,-0.01011 -0.051817,0.01598 -0.067797,0 -0.01598,-0.01598 0,-0.0452 0,-0.0678 0,-0.0904 0,-0.180791 0,-0.271187 0,-0.180791 0,-0.361582 0,-0.542373 0,-0.0226 0,-0.0452 0,-0.0678 0,-0.0226 0.01598,-0.05182 0,-0.0678 -0.01598,-0.01598 -0.051817,0.01598 -0.067797,0 -0.01598,-0.01598 0.00715,-0.04636 0,-0.0678 -0.1636931,-0.491079 0.019546,0.106888 -0.1355933,-0.20339 -0.046758,-0.09352 0.082105,-0.06064 -0.067797,-0.135593 -0.010079,-0.005 -0.2562996,-0.005 -0.2711864,0 -0.04794,0.01598 -0.093548,0.03977 -0.1355932,0.0678 -0.026592,0.01773 -0.039211,0.0535 -0.067797,0.0678 -0.020213,0.01011 -0.045198,0 -0.067797,0 -0.045198,0 -0.090395,0 -0.1355932,0 -0.058751,0 -0.2319136,0.01309 -0.2711864,0 -0.2457824,-0.08193 -0.048251,-0.03217 -0.2033899,-0.135593 -0.042046,-0.02803 -0.093547,-0.03977 -0.1355932,-0.0678 -0.026592,-0.01773 -0.039211,-0.0535 -0.067797,-0.0678 -0.020213,-0.01011 -0.051817,0.01598 -0.067797,0 -0.3464664,-0.346466 0.2842697,0.09456 -0.2033898,-0.271186 -0.3615819,-0.180791 0.067797,0.0678 -0.2033899,-0.20339 -0.01598,-0.01598 -0.05769,0.02021 -0.067797,0 -0.020213,-0.04043 0.020213,-0.09517 0,-0.135593 -0.010107,-0.02021 -0.051817,0.01598 -0.067797,0 -0.01598,-0.01598 0.010107,-0.04758 0,-0.0678 -0.014293,-0.02858 -0.053504,-0.03921 -0.067797,-0.0678 -0.020213,-0.04043 0.025071,-0.09799 0,-0.135594 -0.035456,-0.05318 -0.1001372,-0.08241 -0.1355932,-0.135593 -0.012536,-0.0188 0,-0.0452 0,-0.0678 -0.022599,-0.0226 -0.045198,-0.0452 -0.067797,-0.0678 -0.035692,-0.03569 -0.1852853,-0.167181 -0.2033898,-0.20339 -0.046758,-0.09352 0.082105,-0.06064 -0.067797,-0.135593 -0.020213,-0.01011 -0.045198,0 -0.067797,0 -0.070137,0 -0.093705,-0.01598 -0.1355932,0.0678 -0.010107,0.02021 0.01598,0.05182 0,0.0678 -0.01598,0.01598 -0.051817,-0.01598 -0.067797,0 -0.046056,0.04606 0.069321,0.134831 -0.067797,0.20339 -0.040426,0.02021 -0.1036336,-0.03196 -0.1355932,0 -0.01598,0.01598 0.01598,0.05182 0,0.0678 -0.01598,0.01598 -0.051817,-0.01598 -0.067797,0 -0.01598,0.01598 0.01598,0.05182 0,0.0678 -0.01598,0.01598 -0.051817,-0.01598 -0.067797,0 -0.1402736,0.140274 0.2143566,-0.0055 -0.067797,0.135593 -0.020213,0.01011 -0.051817,-0.01598 -0.067797,0 -0.01598,0.01598 0.010107,0.04758 0,0.0678 -0.028586,0.05717 -0.1070076,0.07842 -0.1355932,0.135593 -0.046758,0.09352 0.082105,0.06064 -0.067797,0.135593 -0.020213,0.01011 -0.051817,-0.01598 -0.067797,0 -0.00434,0.0043 -0.1271742,0.258558 -0.1355932,0.271187 -0.017728,0.02659 -0.053504,0.03921 -0.067797,0.0678 -0.010107,0.02021 0.010107,0.04758 0,0.0678 -0.014293,0.02859 -0.050069,0.04121 -0.067797,0.0678 -0.02803,0.04204 -0.041798,0.09226 -0.067797,0.135593 -0.041922,0.06987 -0.099154,0.130511 -0.1355932,0.20339 -0.020213,0.04043 0.016786,0.09363 0,0.135593 C 4.0980585,24.093837 4.0375347,24.17735 4,24.271186 c -0.012164,0.03041 0,0.165081 0,0.20339 0,0.0226 -0.01598,0.05182 0,0.0678 0.01598,0.01598 0.047584,-0.01011 0.067797,0 0.028586,0.01429 0.039211,0.0535 0.067797,0.0678 0.020213,0.01011 0.047584,-0.01011 0.067797,0 0.2821533,0.141077 -0.072477,-0.0047 0.067797,0.135594 0.01598,0.01598 0.047584,-0.01011 0.067797,0 0.012978,0.0065 0.2646976,0.258208 0.2711864,0.271186 0.020584,0.04117 -0.020584,0.365612 0,0.40678 0.014293,0.02858 0.053504,0.03921 0.067797,0.0678 0.00891,0.01783 0,0.235735 0,0.271187 0,0.03053 0.010316,0.182757 0,0.20339 -0.028586,0.05717 -0.1070077,0.07842 -0.1355932,0.135593 -0.020213,0.04043 0.014293,0.09272 0,0.135593 -0.01598,0.04794 -0.055541,0.08657 -0.067797,0.135593 -0.026366,0.105464 0.021329,0.232338 0,0.338983 -0.014015,0.07008 -0.053781,0.133314 -0.067797,0.20339 -0.00886,0.04432 0.00886,0.09127 0,0.135593 -0.014015,0.07008 -0.053781,0.133314 -0.067797,0.20339 -0.00886,0.04432 0,0.0904 0,0.135594 0,0.112994 0,0.225988 0,0.338983 0,0.180791 0,0.361581 0,0.542372 0,0.158193 0,0.316385 0,0.474577 0,0.0452 0,0.0904 0,0.135593 0,0.0452 -0.020213,0.09517 0,0.135593 0.010107,0.02021 0.045198,0 0.067797,0 0.022599,0 0.047583,0.01011 0.067797,0 0.028586,-0.01429 0.045198,-0.0452 0.067797,-0.0678 0.022599,-0.0226 0.053504,-0.03921 0.067797,-0.0678 0.010107,-0.02021 0,-0.0452 0,-0.0678 0,-0.0452 0,-0.0904 0,-0.135593 0,-0.07014 -0.01598,-0.0937 0.067797,-0.135593 0.020107,-0.01005 0.3412047,0 0.4067797,0 0.022599,0 0.047583,0.01011 0.067797,0 0.028586,-0.01429 0.039211,-0.0535 0.067797,-0.0678 0.020213,-0.01011 0.047583,0.01011 0.067797,0 0.028586,-0.01429 0.039211,-0.0535 0.067797,-0.0678 0.093516,-0.04676 0.060642,0.0821 0.1355932,-0.0678 0.010107,-0.02021 -0.01598,-0.05182 0,-0.0678 0.01598,-0.01598 0.051817,0.01598 0.067797,0 0.01598,-0.01598 -0.01598,-0.05182 0,-0.0678 0.01598,-0.01598 0.051817,0.01598 0.067797,0 0.03196,-0.03196 -0.020213,-0.09517 0,-0.135593 0.028586,-0.05717 0.1070077,-0.07842 0.1355933,-0.135594 0.046758,-0.09352 -0.082105,-0.06064 0.067797,-0.135593 0.079498,-0.03975 0.080467,0.04023 0.1355932,0.0678 0.020213,0.01011 0.045198,0 0.067797,0 0.022599,0.0226 0.039211,0.0535 0.067797,0.0678 0.020213,0.01011 0.051817,-0.01598 0.067797,0 0.1402736,0.140274 -0.2143566,-0.0055 0.067797,0.135594 0.020213,0.01011 0.047584,-0.01011 0.067797,0 0.028586,0.01429 0.039211,0.0535 0.067797,0.0678 0.020213,0.01011 0.047583,-0.01011 0.067797,0 0.028586,0.01429 0.039211,0.0535 0.067797,0.0678 0.020633,0.01032 0.1728571,0 0.2033898,0 0.055491,0 0.3869427,0.0099 0.4067797,0 0.057171,-0.02859 0.084458,-0.09724 0.1355932,-0.135593 0.2739962,-0.205498 0.032204,-0.01074 0.2033898,-0.0678 0.04794,-0.01598 0.087654,-0.05182 0.1355932,-0.0678 0.038251,-0.01275 0.1588402,0 0.2033899,0 0.056772,0 0.287426,-0.01289 0.338983,0 0.039216,0.0098 0.2319708,0.12579 0.2711865,0.135594 0.043848,0.01096 0.095167,-0.02021 0.1355932,0 0.020213,0.01011 -0.01598,0.05182 0,0.0678 0.1480523,0.148053 0.110075,0.01409 0.2711864,0.0678 0.03032,0.01011 0.039211,0.0535 0.067797,0.0678 0.020213,0.01011 0.047584,-0.01011 0.067797,0 0.028586,0.01429 0.039211,0.0535 0.067797,0.0678 0.1669797,0.08349 -0.061202,-0.196796 0.2033898,0.0678 0.01598,0.01598 -0.020213,0.05769 0,0.0678 0.040426,0.02021 0.095167,-0.02021 0.1355932,0 0.057171,0.02859 0.082409,0.100137 0.1355932,0.135593 0.018803,0.01254 0.047584,-0.01011 0.067797,0 0.028586,0.01429 0.039211,0.0535 0.067797,0.0678 0.020633,0.01032 0.1728572,0 0.2033899,0 0.078476,0 0.2784556,0.01513 0.3389836,0 0.09805,-0.02451 0.173138,-0.111081 0.271186,-0.135593 0.04385,-0.01096 0.09174,0.01096 0.135593,0 0.276504,-0.06913 0.537056,-0.202061 0.81356,-0.271187 0.02171,-0.0054 0.195467,0.01584 0.203389,0 0.02021,-0.04043 -0.02021,-0.09517 0,-0.135593 0.02021,-0.04043 0.103634,0.03196 0.135594,0 0.01598,-0.01598 -0.01254,-0.04899 0,-0.0678 0.03343,-0.05014 0.2433,-0.215416 0.271186,-0.271187 0.02021,-0.04043 -0.02021,-0.09517 0,-0.135593 0.01429,-0.02859 0.0535,-0.03921 0.0678,-0.0678 0.02021,-0.04043 -0.02021,-0.09517 0,-0.135593 0.01429,-0.02858 0.03921,-0.0535 0.0678,-0.0678 0.02895,-0.01448 0.312182,0 0.338983,0 0.0226,0 0.04758,-0.01011 0.0678,0 0.02858,0.01429 0.0412,0.05007 0.0678,0.0678 0.04205,0.02803 0.0904,0.0452 0.135594,0.0678 0.0452,0.0226 0.09039,0.0452 0.135593,0.0678 0.0452,0.0226 0.09986,0.03207 0.135593,0.0678 0.03573,0.03573 0.02575,0.107563 0.0678,0.135593 0.03761,0.02507 0.09799,-0.02507 0.135593,0 0.04205,0.02803 0.03207,0.09986 0.0678,0.135593 0.01598,0.01598 0.05182,-0.01598 0.0678,0 0.03573,0.03573 0.02575,0.107563 0.0678,0.135594 0.03761,0.02507 0.0904,0 0.135593,0 0.0678,0 0.137617,0.01644 0.20339,0 0.327386,-0.08185 -0.0034,-0.03222 0.20339,-0.135594 0.0678,-0.0226 0.135593,-0.0452 0.20339,-0.0678 0.0226,-0.0226 0.03921,-0.0535 0.0678,-0.0678 0.02021,-0.01011 0.05182,0.01598 0.0678,0 0.0843,-0.0843 0.0678,-0.170463 0.0678,-0.271186 0,-0.03545 0.0089,-0.25336 0,-0.271187 -0.141076,-0.282153 0.0047,0.07248 -0.135593,-0.0678 -0.03573,-0.03573 -0.02575,-0.107563 -0.0678,-0.135594 -0.03761,-0.02507 -0.09272,0.01429 -0.135594,0 -0.03032,-0.01011 -0.0452,-0.0452 -0.0678,-0.0678 -0.0452,-0.0226 -0.08657,-0.05554 -0.135594,-0.0678 -0.234826,-0.05871 -0.04072,0.08585 -0.271186,-0.0678 -0.12405,-0.0827 -0.0068,-0.08644 -0.20339,-0.135594 -0.05032,-0.01258 -0.250376,0.02081 -0.271186,0 -0.01598,-0.01598 0.01598,-0.05182 0,-0.0678 -0.01855,-0.01855 -0.234408,0.01839 -0.271187,0 -0.05717,-0.02859 -0.07842,-0.107008 -0.135593,-0.135593 -0.02021,-0.01011 -0.0452,0 -0.0678,0 -0.0452,0 -0.09517,0.02021 -0.135593,0 -0.02021,-0.01011 0.01598,-0.05182 0,-0.0678 -0.0043,-0.0043 -0.258558,-0.127174 -0.271186,-0.135593 -0.02659,-0.01773 -0.03921,-0.0535 -0.0678,-0.0678 -0.02021,-0.01011 -0.05182,0.01598 -0.0678,0 -0.140274,-0.140273 0.214356,0.0055 -0.0678,-0.135593 -0.02021,-0.01011 -0.0452,0 -0.0678,0 -0.0226,-0.0226 -0.03921,-0.0535 -0.0678,-0.0678 -0.04043,-0.02021 -0.103634,0.03196 -0.135593,0 -0.01598,-0.01598 0.02021,-0.05769 0,-0.0678 -0.04043,-0.02021 -0.09272,0.01429 -0.135594,0 -0.06064,-0.02021 -0.07842,-0.107008 -0.135593,-0.135594 -0.02021,-0.01011 -0.0452,0 -0.0678,0 -0.0452,0 -0.09271,0.01429 -0.135594,0 -0.211615,-0.07054 0.0226,-0.0452 -0.0678,-0.135593 -0.01386,-0.01386 -0.176509,0.01344 -0.20339,0 -0.02859,-0.01429 -0.03921,-0.0535 -0.0678,-0.0678 -0.01783,-0.0089 -0.235734,0 -0.271186,0 -0.06827,0 -0.369287,-0.0125 -0.40678,0 -0.06064,0.02021 -0.07842,0.107007 -0.135593,0.135593 -0.04043,0.02021 -0.09127,-0.0089 -0.1355934,0 -0.091368,0.01827 -0.180791,0.0452 -0.2711864,0.0678 z"
       id="path832"
       inkscape:connector-curvature="0" />
    <path
       style="fill:none;stroke:#ffd740;stroke-width:1px;stroke-linecap:butt;stroke-linejoin:miter;stroke-opacity:1"
       d="m 24.067797,23.864407 c 0.742305,0 0.08015,0.05053 0.474576,-0.0678 0.180791,-0.0452 0.361582,-0.0904 0.542373,-0.135593 0.0226,-0.0226 0.03921,-0.0535 0.0678,-0.0678 0.654772,-0.327386 -0.126434,0.08734 0.338983,-0.0678 0.03032,-0.01011 0.0452,-0.0452 0.0678,-0.0678 0.0226,-0.0226 0.0535,-0.03921 0.0678,-0.0678 0.0097,-0.0194 0,-0.302766 0,-0.338984 0,-0.225988 0,-0.451977 0,-0.677966 0,-0.0231 -0.01223,-0.234494 0,-0.271186 0.01598,-0.04794 0.05182,-0.08765 0.0678,-0.135593 0.0071,-0.02144 -0.01011,-0.04758 0,-0.0678 0.02859,-0.05717 0.100137,-0.08241 0.135593,-0.135593 0.02803,-0.04205 0.03207,-0.09986 0.0678,-0.135593 0.01598,-0.01598 0.05182,0.01598 0.0678,0 0.03573,-0.03573 0.03206,-0.09986 0.0678,-0.135594 0.01598,-0.01598 0.05182,0.01598 0.0678,0 0.01598,-0.01598 -0.02021,-0.05769 0,-0.0678 0.04043,-0.02021 0.09517,0.02021 0.135593,0 0.02021,-0.01011 -0.01011,-0.04758 0,-0.0678 0.01429,-0.02858 0.03921,-0.0535 0.0678,-0.0678 0.02021,-0.01011 0.0452,0 0.0678,0 0.0226,0 0.0452,0 0.0678,0 0.03481,0 0.25441,0.01118 0.271186,0 0.05318,-0.03546 0.100138,-0.08241 0.135594,-0.135594 0.01253,-0.0188 0,-0.0452 0,-0.0678 0,-0.0452 -0.01429,-0.09271 0,-0.135593 0.01011,-0.03032 0.05593,-0.03812 0.0678,-0.0678 0.08905,-0.222621 0.0678,-0.445871 0.0678,-0.677966 0,-0.02547 -0.0017,-0.337291 0,-0.338983 0.09316,-0.09316 0.223967,-0.0678 0.338983,-0.0678 0.0452,0 0.09175,-0.01096 0.135593,0 0.04902,0.01226 0.08657,0.05554 0.135593,0.0678 0.04385,0.01096 0.09272,-0.01429 0.135594,0 0.03032,0.01011 0.0452,0.0452 0.0678,0.0678 0.0226,0.0226 0.0452,0.0452 0.0678,0.0678 0.0226,0.0226 0.0452,0.0452 0.0678,0.0678 0.0226,0.0226 0.0535,0.03921 0.0678,0.0678 0.01011,0.02021 -0.01011,0.04758 0,0.0678 0.01429,0.02858 0.0535,0.03921 0.0678,0.0678 0.0108,0.02161 0,0.278392 0,0.338983 0,0.158193 0,0.316385 0,0.474577 0,0.0678 0.02144,0.139072 0,0.20339 -0.01011,0.03032 -0.0535,0.03921 -0.0678,0.0678 -0.01011,0.02021 0,0.0452 0,0.0678 0,0.02852 0.01008,0.386612 0,0.406779 -0.01429,0.02859 -0.05769,0.03748 -0.0678,0.0678 -0.02144,0.06432 0,0.135593 0,0.20339 0,0.135593 0,0.271186 0,0.40678 0,0.0678 0.01644,0.137617 0,0.203389 -0.08185,0.327386 -0.03222,-0.0034 -0.135593,0.20339 -0.02021,0.04043 0.01429,0.09271 0,0.135593 -0.01598,0.04794 -0.05182,0.08765 -0.0678,0.135594 -0.0071,0.02144 0.01011,0.04758 0,0.0678 -0.01429,0.02859 -0.0535,0.03921 -0.0678,0.0678 -0.02021,0.04043 0.02021,0.09517 0,0.135593 -0.01429,0.02859 -0.0535,0.03921 -0.0678,0.0678 -0.01032,0.02063 0,0.172857 0,0.20339 0,0.135593 0,0.271186 0,0.406779 0,0.474576 0,0.949153 0,1.423729 0,0.09805 0.01432,0.402984 0,0.474576 -0.0099,0.04955 -0.05182,0.08765 -0.0678,0.135594 -0.01429,0.04288 0.01429,0.09271 0,0.135593 -0.01598,0.04794 -0.05182,0.08765 -0.0678,0.135593 -0.01275,0.03825 0,0.15884 0,0.20339 0,0.0226 0,0.0452 0,0.0678 0,0.0226 -0.01011,0.04758 0,0.0678 0.05192,0.103836 0.120815,0.05302 0.20339,0.135593 0.02891,0.02891 -0.03541,0.171002 -0.0678,0.20339 -0.01598,0.01598 -0.04636,-0.0071 -0.0678,0 -0.296142,0.09871 0.04781,0.04867 -0.338983,0.20339 -0.04196,0.01679 -0.09174,-0.01096 -0.135594,0 -0.146125,0.03653 -0.191226,0.173838 -0.338983,0.20339 -0.06648,0.0133 -0.136909,-0.0133 -0.203389,0 -0.04955,0.0099 -0.08765,0.05182 -0.135594,0.0678 -0.02144,0.0071 -0.04636,-0.0071 -0.0678,0 -0.04794,0.01598 -0.08657,0.05554 -0.135593,0.0678 -0.04385,0.01096 -0.09175,-0.01096 -0.135594,0 -0.04902,0.01226 -0.08657,0.05554 -0.135593,0.0678 -0.08996,0.02249 -0.326964,-0.02661 -0.40678,0 -0.03032,0.01011 -0.03921,0.0535 -0.0678,0.0678 -0.02021,0.01011 -0.0452,0 -0.0678,0 -0.0226,0 -0.0452,0 -0.0678,0 -0.0678,0 -0.135594,0 -0.20339,0 -0.0452,0 -0.09174,-0.01096 -0.135593,0 -0.04902,0.01226 -0.08604,0.05789 -0.135594,0.0678 -0.06648,0.0133 -0.135593,0 -0.20339,0 -0.09039,0 -0.18079,0 -0.271186,0 -0.20339,0 -0.40678,0 -0.610169,0 -0.112995,0 -0.225989,0 -0.338983,0 -0.0226,0 -0.05182,0.01598 -0.0678,0 -0.01598,-0.01598 0.01598,-0.05182 0,-0.0678 -0.01598,-0.01598 -0.05182,0.01598 -0.0678,0 -0.01598,-0.01598 0.01598,-0.05182 0,-0.0678 -0.01598,-0.01598 -0.04636,0.0071 -0.0678,0 -0.04794,-0.01598 -0.09355,-0.03977 -0.135594,-0.0678 -0.02659,-0.01773 -0.03679,-0.06005 -0.0678,-0.0678 -0.06577,-0.01644 -0.140442,0.02518 -0.20339,0 -0.05935,-0.02374 -0.07625,-0.111854 -0.135593,-0.135593 -0.06295,-0.02518 -0.13691,0.0133 -0.20339,0 -0.04955,-0.0099 -0.08765,-0.05182 -0.135593,-0.0678 -0.04288,-0.01429 -0.103634,0.03196 -0.135593,0 -0.01598,-0.01598 0.01598,-0.05182 0,-0.0678 -0.01598,-0.01598 -0.0452,0 -0.0678,0 -0.480863,0 -0.03971,-0.04794 -0.271187,0.0678 -0.09352,0.04676 -0.06064,-0.08211 -0.135593,0.0678 -0.01011,0.02021 0.01598,0.05182 0,0.0678 -0.01598,0.01598 -0.04636,-0.0071 -0.0678,0 -0.04794,0.01598 -0.08765,0.05182 -0.135594,0.0678 -0.02144,0.0071 -0.0452,0 -0.0678,0 -0.225485,0 -0.05116,0.02021 -0.271187,-0.0678 -0.451098,-0.18044 0.05037,0.0709 -0.406779,-0.20339 -0.04333,-0.026 -0.09986,-0.03206 -0.135594,-0.0678 -0.01598,-0.01598 0.01011,-0.04758 0,-0.0678 -0.009,-0.018 -0.185389,-0.19439 -0.203389,-0.20339 -0.02021,-0.01011 -0.05182,0.01598 -0.0678,0 -0.0066,-0.0066 0,-0.313148 0,-0.338983 0,-0.02547 -0.0017,-0.337291 0,-0.338983 0.03196,-0.03196 0.09272,0.01429 0.135593,0 0.04794,-0.01598 0.08765,-0.05182 0.135593,-0.0678 0.07204,-0.02401 0.199145,0.02401 0.271187,0 0.04794,-0.01598 0.08765,-0.05182 0.135593,-0.0678 0.03825,-0.01275 0.15884,0 0.20339,0 0.135593,0 0.271186,0 0.40678,0 0.0226,0 0.0452,0 0.0678,0 0.0226,0 0.05182,0.01598 0.0678,0 0.01598,-0.01598 -0.02021,-0.05769 0,-0.0678 0.04043,-0.02021 0.09943,0.02712 0.135593,0 0.06518,-0.04889 0.0867,-0.138205 0.135593,-0.20339 0.09492,-0.126554 0.244068,-0.212429 0.338983,-0.338983 0.03032,-0.04043 0.03206,-0.09986 0.0678,-0.135593 0.01598,-0.01598 0.05182,0.01598 0.0678,0 0.01598,-0.01598 -0.0071,-0.04636 0,-0.0678 0.01598,-0.04794 0.03977,-0.09355 0.0678,-0.135593 0.224853,-0.224853 -0.03196,0.06392 0.0678,-0.135593 0.01429,-0.02859 0.0535,-0.03921 0.0678,-0.0678 0.01344,-0.02688 -0.01386,-0.18953 0,-0.20339 0.140274,-0.140273 -0.0055,0.214357 0.135594,-0.0678 0.02021,-0.04043 -0.01429,-0.09272 0,-0.135594 0.01598,-0.04794 0.05182,-0.08765 0.0678,-0.135593 0.0071,-0.02144 -0.01011,-0.04758 0,-0.0678 0.01429,-0.02859 0.0535,-0.03921 0.0678,-0.0678 0.0089,-0.01783 0,-0.235734 0,-0.271186 0,-0.03053 -0.01032,-0.182757 0,-0.20339 0.01429,-0.02859 0.0535,-0.03921 0.0678,-0.0678 0.01011,-0.02021 0,-0.0452 0,-0.0678 0,-0.0678 0,-0.135594 0,-0.20339 0,-0.03545 -0.0089,-0.25336 0,-0.271187 0.009,-0.018 0.18539,-0.194389 0.20339,-0.20339 0.01783,-0.0089 0.235734,0 0.271187,0 0.0226,0 0.05182,-0.01598 0.0678,0 0.03573,0.03573 0.03207,0.09986 0.0678,0.135594 0.01598,0.01598 0.05182,-0.01598 0.0678,0 0.01598,0.01598 -0.01598,0.05182 0,0.0678 0.140273,0.140274 -0.0055,-0.214356 0.135593,0.0678 0.01011,0.02021 -0.01598,0.05182 0,0.0678 0.01598,0.01598 0.05182,-0.01598 0.0678,0 0.01209,0.01209 -0.01084,0.176277 0,0.203389 0.03753,0.09384 0.0904,0.180791 0.135594,0.271187 z"
       id="path834"
       inkscape:connector-curvature="0" />
  </g>
</svg>
